<svg xmlns="http://www.w3.org/2000/svg" height="548" width="546.667"><g fill="#fff"><path d="M305.14 413.259a10.737 10.737 0 0 0-7.541-3.126 10.74 10.74 0 0 0-7.542 3.126 10.752 10.752 0 0 0-3.125 7.541c0 2.807 1.141 5.557 3.125 7.541a10.74 10.74 0 0 0 7.542 3.126c2.808 0 5.557-1.14 7.541-3.126a10.739 10.739 0 0 0 3.125-7.541c0-2.803-1.14-5.557-3.125-7.541zM353.068 117.15h-.147c-5.89 0-10.666 4.775-10.666 10.666 0 5.89 4.776 10.667 10.666 10.667h.147c5.89 0 10.667-4.776 10.667-10.667 0-5.89-4.776-10.667-10.667-10.667zM480.136 117.15h-85.199c-5.89 0-10.666 4.775-10.666 10.666 0 5.89 4.776 10.667 10.666 10.667h85.199c5.89 0 10.667-4.776 10.667-10.667 0-5.89-4.776-10.667-10.667-10.667z"/><path d="M535.464 68.8H406.443V25.27c0-13.642-11.094-24.735-24.735-24.735H230.552c-13.635 0-24.73 11.093-24.73 24.734V68.8H76.798c-5.89 0-10.666 4.776-10.666 10.667v100.478c0 14.882 6.134 28.355 16 38.038v48.145c0 5.89 4.776 10.667 10.666 10.667 5.896 0 10.667-4.776 10.667-10.667v-35.307a53.162 53.162 0 0 0 16 2.458H160v.026c0 24.115 19.62 43.735 43.735 43.735 24.114 0 43.729-19.62 43.729-43.735v-.13h117.333v.13c0 24.115 19.619 43.735 43.734 43.735 24.114 0 43.734-19.62 43.734-43.735v-.13l40.5.073h.038c5.504 0 10.885-.839 15.994-2.437v168.656c0 5.88-4.781 10.666-10.666 10.666H343.109c-5.89 0-10.666 4.776-10.666 10.667 0 5.89 4.776 10.667 10.666 10.667h155.022c17.645 0 32-14.355 32-32V217.988c.124-.115.249-.23.369-.35 10.079-10.073 15.63-23.469 15.63-37.723V79.467c0-5.891-4.77-10.667-10.666-10.667zM227.156 25.27a3.404 3.404 0 0 1 3.396-3.402h151.156a3.405 3.405 0 0 1 3.401 3.401V68.8H227.156zm-1.025 208.035c0 12.355-10.048 22.402-22.396 22.402-12.355 0-22.402-10.047-22.402-22.402v-35.25h44.798zm204.801 0c0 12.355-10.047 22.402-22.401 22.402-12.348 0-22.4-10.047-22.4-22.402v-35.25h44.801zm93.865-53.39c0 8.552-3.328 16.588-9.376 22.636-6.046 6.041-14.077 9.364-22.609 9.364h-.02l-40.527-.074v-21.254c0-7.647-6.218-13.866-13.864-13.866h-59.734c-7.646 0-13.87 6.219-13.87 13.866v21.254H247.464v-21.254c0-7.647-6.219-13.866-13.865-13.866h-59.735c-7.645 0-13.864 6.219-13.864 13.866v21.358h-40.536c-17.641 0-32-14.358-32-32V90.133h437.333z"/><path d="M306.13 307.368c-6.969 0-12.635-4.704-12.635-10.484 0-5.781 5.666-10.485 12.636-10.485 6.968 0 12.64 4.704 12.64 10.485 0 5.89 4.776 10.667 10.666 10.667 5.891 0 10.667-4.778 10.667-10.667 0-14.053-9.787-26-23.307-30.204v-.552a10.66 10.66 0 0 0-10.666-10.667c-5.891 0-10.667 4.771-10.667 10.667v.552c-13.521 4.204-23.303 16.15-23.303 30.204 0 17.541 15.24 31.817 33.97 31.817 6.968 0 12.64 4.703 12.64 10.484 0 5.776-5.672 10.479-12.64 10.479-6.97 0-12.636-4.703-12.636-10.479 0-5.896-4.776-10.666-10.667-10.666-5.89 0-10.667 4.77-10.667 10.666 0 14.058 9.792 26.006 23.318 30.203.136 5.772 4.849 10.407 10.652 10.407 5.806 0 10.52-4.635 10.656-10.407 13.525-4.197 23.317-16.145 23.317-30.203 0-17.546-15.24-31.817-33.973-31.817zM130.13 354.67c-34.109 0-61.865 27.75-61.865 61.865 0 34.114 27.756 61.863 61.866 61.863 34.114 0 61.869-27.749 61.869-61.863 0-34.115-27.755-61.866-61.87-61.866zm0 102.395c-22.349 0-40.532-18.181-40.532-40.53 0-22.35 18.183-40.532 40.533-40.532 22.353 0 40.536 18.182 40.536 40.532 0 22.349-18.183 40.53-40.536 40.53z"/><path d="M260.245 395.196a10.66 10.66 0 0 0-8.994-10.532l-14.715-2.333-7.02-16.927 8.75-12.057a10.668 10.668 0 0 0-1.094-13.807l-30.12-30.1a10.671 10.671 0 0 0-13.812-1.088l-12.047 8.755-16.938-7.01-2.343-14.704a10.66 10.66 0 0 0-10.532-8.989h-.005l-42.578.016a10.664 10.664 0 0 0-10.532 9l-2.333 14.713-16.927 7.016-12.062-8.745a10.665 10.665 0 0 0-13.803 1.093l-30.104 30.12a10.664 10.664 0 0 0-1.083 13.808l8.75 12.047-7.01 16.943-14.703 2.338A10.677 10.677 0 0 0 0 395.295l.016 42.578a10.668 10.668 0 0 0 9 10.531l14.713 2.333 7.02 16.927L22 479.721a10.67 10.67 0 0 0 1.093 13.808l30.12 30.1a10.672 10.672 0 0 0 13.814 1.088l12.046-8.756 16.937 7.01 2.345 14.703a10.656 10.656 0 0 0 10.53 8.99h.006l42.578-.015c5.244 0 9.714-3.818 10.531-9l2.333-14.713 16.927-7.016 12.063 8.744a10.657 10.657 0 0 0 13.802-1.093l30.104-30.12a10.668 10.668 0 0 0 1.083-13.807l-8.755-12.047 7.011-16.942 14.708-2.339a10.678 10.678 0 0 0 8.99-10.543zm-32.922 35.328a10.676 10.676 0 0 0-8.183 6.459l-11.572 27.973a10.653 10.653 0 0 0 1.224 10.35l6.91 9.51-17.229 17.235-9.52-6.907a10.678 10.678 0 0 0-10.349-1.219l-27.959 11.594a10.675 10.675 0 0 0-6.448 8.183l-1.837 11.62-24.37.009-1.85-11.61a10.657 10.657 0 0 0-6.457-8.176l-27.975-11.578a10.64 10.64 0 0 0-10.344 1.23l-9.51 6.906-17.24-17.224 6.907-9.522a10.673 10.673 0 0 0 1.22-10.35l-11.596-27.956a10.641 10.641 0 0 0-8.181-6.448l-11.615-1.844-.01-24.371 11.604-1.848a10.675 10.675 0 0 0 8.182-6.453l11.572-27.975a10.65 10.65 0 0 0-1.224-10.348l-6.91-9.51 17.23-17.235 9.519 6.901c3 2.183 6.923 2.64 10.344 1.224l27.959-11.593a10.684 10.684 0 0 0 6.453-8.183l1.839-11.62 24.369-.01 1.85 11.609a10.661 10.661 0 0 0 6.453 8.177l27.973 11.579a10.672 10.672 0 0 0 10.35-1.23l9.51-6.906 17.239 17.224-6.906 9.521a10.664 10.664 0 0 0-1.218 10.348l11.593 27.959a10.647 10.647 0 0 0 8.183 6.448l11.614 1.844.01 24.37z"/></g></svg>