<svg xmlns="http://www.w3.org/2000/svg" width="53" height="32"><style>.st1{fill:#ffffff}.st2{fill:#f95b26}</style><g xmlns="http://www.w3.org/2000/svg" id="g302" style="transform:translateX(-97px)"><g id="g24"><path xmlns:inkscape="http://www.inkscape.org/namespaces/inkscape" class="st1" d="M130.7 22.9c-.2.4-.5.8-.8 1.1-.3.3-.7.6-1 .9-.4.2-.7.4-1.1.5-.4.1-.8.2-1.1.2-.7 0-1.2-.1-1.7-.3-.5-.2-.8-.5-1.1-.8-.3-.4-.5-.8-.6-1.2-.1-.5-.2-1-.2-1.5 0-.4 0-.8.1-1.3.1-.4.2-.9.3-1.3 0-.1 0-.1.1-.2v-.2c0-.1 0-.1-.1-.1-.2-.1-.4-.1-.6-.2-.2-.1-.4-.1-.6-.2-.2-.1-.4-.2-.6-.2-.2-.1-.4-.2-.5-.4 0 .6-.1 1.3-.3 1.9-.2.6-.5 1.3-.9 1.8-.4.6-.8 1.1-1.3 1.6s-1 1-1.5 1.3l-.2-.2c.3-.3.6-.7.9-1.2.3-.5.5-.9.7-1.4.2-.5.3-1 .5-1.5.1-.5.2-1 .2-1.4 0-.2 0-.4-.1-.6 0-.2-.1-.4-.1-.6-.1-.2-.1-.4-.1-.5 0-.2-.1-.3-.1-.5 0-.3.1-.5.3-.7.2-.2.5-.2.8-.2.2 0 .3 0 .4.1.1.1.2.2.2.3.1.1.1.3.2.4.1.1.2.2.4.3.2.1.5.2.8.2.3.1.7.1 1 .1.4 0 .7.1 1.1.1.4 0 .7.1 1 .2.3.1.5.2.7.4.2.2.3.4.3.7v.4c0 .1-.1.3-.1.4-.1.4-.3.9-.4 1.3-.1.5-.1.9-.1 1.3s0 .7.1 1.1c.1.3.2.6.4.8.2.2.4.4.7.5.3.1.6.2 1.1.2.6 0 1.2-.1 1.7-.4.5-.3.9-.7 1.3-1.1z" id="path20" fill="#121212"/><path xmlns:inkscape="http://www.inkscape.org/namespaces/inkscape" class="st1" d="M138.6 22.9c-.3.4-.6.8-.9 1.1l-1.2.9c-.4.2-.9.4-1.4.6-.5.1-1 .2-1.5.2-.6 0-1.2-.1-1.7-.3-.5-.2-.9-.5-1.2-.8-.3-.3-.6-.8-.8-1.2-.2-.5-.3-1-.3-1.6 0-.6.1-1.2.3-1.7.2-.5.5-1 .8-1.5.3-.5.7-.9 1.2-1.3s1-.7 1.5-1.1l.2.1c-.6.6-1 1.3-1.4 2-.3.7-.5 1.5-.5 2.3 0 .5.1.9.2 1.3s.3.8.6 1.1c.3.3.6.6 1 .8.4.2.9.3 1.5.3.7 0 1.3-.1 1.9-.4.6-.3 1.2-.6 1.6-1zm-4.8-10.3c0 .2-.1.4-.2.6-.1.2-.2.4-.4.6-.2.2-.4.3-.6.4-.2.1-.4.2-.7.2-.3 0-.5-.1-.7-.3-.2-.2-.3-.4-.3-.7 0-.2.1-.4.2-.6.1-.2.2-.4.4-.5.2-.2.4-.3.6-.4.2-.1.4-.1.7-.1.3 0 .5.1.7.2.2.1.3.3.3.6z" id="path22" fill="#121212"/></g><g id="g280"><path xmlns:inkscape="http://www.inkscape.org/namespaces/inkscape" class="st1" d="M119.2 8.3c.1-.5.2-.9.2-1.4 0-.6-.1-1.1-.3-1.5-.2-.5-.4-.8-.8-1.2-.4-.3-.8-.6-1.3-.8-.5-.2-1.1-.3-1.8-.3-1.4 0-2.7.3-3.8.8-1.1.5-2.2 1.2-3 2-.9.8-1.7 1.8-2.3 2.9-.6 1.1-1.2 2.2-1.6 3.4-.4 1.2-.7 2.3-.9 3.5-.2 1.2-.3 2.3-.3 3.3 0 .8.1 1.6.2 2.4.1.8.3 1.6.6 2.4.3.8.6 1.5 1.1 2.1.4.7 1 1.2 1.6 1.7.6.5 1.3.9 2.1 1.2.8.3 1.7.4 2.8.4.7 0 1.4-.1 2.1-.3.7-.2 1.3-.5 1.9-.9.6-.4 1.1-.8 1.6-1.2.5-.5.9-.9 1.2-1.4l.2.1c-.2.7-.6 1.4-1.2 2-.5.7-1.2 1.2-1.9 1.8-.7.5-1.6.9-2.4 1.2-.9.3-1.8.5-2.7.5-1.2 0-2.2-.2-3.2-.5s-1.8-.7-2.6-1.3c-.7-.5-1.4-1.2-1.9-1.9s-1-1.5-1.4-2.3c-.4-.8-.6-1.7-.8-2.6-.2-.9-.3-1.8-.3-2.8 0-1.2.2-2.5.5-3.8.3-1.3.8-2.6 1.4-3.9.6-1.3 1.3-2.5 2.2-3.6.9-1.1 1.9-2.2 3-3 1.1-.9 2.4-1.6 3.7-2.1 1.4-.5 2.8-.8 4.4-.8 1 0 1.9.1 2.7.4.8.2 1.5.6 2.1 1 .6.5 1 1 1.4 1.7.3.7.5 1.4.5 2.3 0 .3 0 .6-.1 1 0 0-.3 3.4-4.8 3.4v-.4c-.2-.2 1.4-.3 1.9-3.5z" id="path26" fill="#121212"/><g id="g278"><path xmlns:inkscape="http://www.inkscape.org/namespaces/inkscape" class="st1" d="M119.2 8.3c.1-.5.2-.9.2-1.4 0-.6-.1-1.1-.3-1.5-.2-.5-.4-.8-.8-1.2-.4-.3-.8-.6-1.3-.8-.5-.2-1.1-.3-1.8-.3-1.4 0-2.7.3-3.8.8-1.1.5-2.2 1.2-3 2-.9.8-1.7 1.8-2.3 2.9-.6 1.1-1.2 2.2-1.6 3.4-.4 1.2-.7 2.3-.9 3.5-.2 1.2-.3 2.3-.3 3.3 0 .8.1 1.6.2 2.4.1.8.3 1.6.6 2.4.3.8.6 1.5 1.1 2.1.4.7 1 1.2 1.6 1.7.6.5 1.3.9 2.1 1.2.8.3 1.7.4 2.8.4.7 0 1.4-.1 2.1-.3.7-.2 1.3-.5 1.9-.9.6-.4 1.1-.8 1.6-1.2.5-.5.9-.9 1.2-1.4l.2.1c-.2.7-.6 1.4-1.2 2-.5.7-1.2 1.2-1.9 1.8-.7.5-1.6.9-2.4 1.2-.9.3-1.8.5-2.7.5-1.2 0-2.2-.2-3.2-.5s-1.8-.7-2.6-1.3c-.7-.5-1.4-1.2-1.9-1.9s-1-1.5-1.4-2.3c-.4-.8-.6-1.7-.8-2.6-.2-.9-.3-1.8-.3-2.8 0-1.2.2-2.5.5-3.8.3-1.3.8-2.6 1.4-3.9.6-1.3 1.3-2.5 2.2-3.6.9-1.1 1.9-2.2 3-3 1.1-.9 2.4-1.6 3.7-2.1 1.4-.5 2.8-.8 4.4-.8 1 0 1.9.1 2.7.4.8.2 1.5.6 2.1 1 .6.5 1 1 1.4 1.7.3.7.5 1.4.5 2.3 0 .3 0 .6-.1 1 0 0-.3 3.4-4.8 3.4v-.4c-.2-.2 1.4-.3 1.9-3.5z" id="path28" fill="#121212"/><g id="g276"><path xmlns:inkscape="http://www.inkscape.org/namespaces/inkscape" class="st1" d="M117.8 11l.1-.1.1-.1c.1-.1.1-.1.1 0l.2-.4v-.1c.1-.2.1-.3.2-.4 0 0 0-.1 0 0v.2c0-.1.1-.2.1-.2l.1-.2c0-.2.1-.3.1-.5l-.1.3c0 .1-.1.2-.1.3 0-.1.1-.3.1-.6.1-.2.1-.5.1-.6l-.1.6c-.1.2-.1.4-.2.5v-.1c0 .1-.1.3-.2.5s-.1.3-.2.4l.1-.2c-.1.2-.1.3-.2.3 0 .1-.1.1-.1.2s-.1.1-.1.2v.1c.1-.3.1-.2 0-.1l-.2.2c.1-.1.1-.2.2-.2z" id="path30" fill="#121212"/><path xmlns:inkscape="http://www.inkscape.org/namespaces/inkscape" class="st1" d="M116.7 11.8v.2l.1.4.3-.1.3-.1c.3 0 .6 0 .9-.1 0 0 .6-.2.2-.1-.1 0-.2.1-.4.1 0 0 .1 0 .2-.1.1 0 .2-.1.4-.1.2-.1.4-.1.3-.1-.3.1-.5.1-.7.2-.2 0-.3.1-.5.1h-1v-.2V11.3h.4c.1 0 .1-.1.1-.1l.1-.1s.1 0 .1-.1l-.1.1-.1-.1s-.1 0-.1.1h-.1-.1-.1l-.3.3v.1-.1l.3-.3H117.2l.1-.1.1-.1.1-.1s-.1 0-.1.1l-.1.1h-.1-.1-.1s-.1 0 0 0l-.5.5v.9h.8c-.5-.1.2 0-.3-.1h-.5v-.4c.2.1.2 0 .2-.1z" id="path32" fill="#121212"/><path xmlns:inkscape="http://www.inkscape.org/namespaces/inkscape" class="st1" d="M117.6 11.1z" id="path34" fill="#121212"/><path xmlns:inkscape="http://www.inkscape.org/namespaces/inkscape" class="st1" d="M117.5 26.6c-.1.2-.2.2-.2.2.4-.4.8-.9 1.2-1.4l-.3.1.2.1-.2-.4c0 .1-.1.2-.1.3 0 0 .1-.2.1-.3l.1.3c-.1-.1-.2-.1 0 0l-.1-.3.1.3c-.1 0-.1-.1-.2-.1l.2-.1c-.1.2-.3.5-.3.5l.1-.2c-.3.5-.6.7-.4.4-.3.4-.6.8-1 1.2l.4-.4c.1.2.2.1.4-.2z" id="path36" fill="#121212"/><path xmlns:inkscape="http://www.inkscape.org/namespaces/inkscape" class="st1" d="M119.1 4.9l-.2-.3c.1.2.2.2.2.3z" id="path38" fill="#121212"/><path xmlns:inkscape="http://www.inkscape.org/namespaces/inkscape" class="st1" d="M116.5 27.7c-.1.1-.2.2-.4.3.2-.1.3-.2.4-.3z" id="path40" fill="#121212"/><path xmlns:inkscape="http://www.inkscape.org/namespaces/inkscape" class="st1" d="M118.9 25.7l.1-.6-.4-.1h-.1.1l.4.1-.1.6c0-.1 0-.1 0 0z" id="path42" fill="#121212"/><path xmlns:inkscape="http://www.inkscape.org/namespaces/inkscape" class="st1" d="M106.2 27.9l-.1-.1c0 .1 0 .1.1.1z" id="path44" fill="#121212"/><path xmlns:inkscape="http://www.inkscape.org/namespaces/inkscape" class="st1" d="M114.5 30.6l.9-.6c-.1.1.3-.2.2 0 .1 0 .4-.3.3-.2l-.2.1.3-.3.5-.5c-.5.3-.7.5-.9.7-.1.1-.2.1-.2.2-.2.2-.5.4-.7.5z" id="path46" fill="#121212"/><path xmlns:inkscape="http://www.inkscape.org/namespaces/inkscape" class="st1" d="M106.9 7.9z" id="path48" fill="#121212"/><path xmlns:inkscape="http://www.inkscape.org/namespaces/inkscape" class="st1" d="M106.9 7.9s-.1.2 0 0z" id="path50" fill="#121212"/><path xmlns:inkscape="http://www.inkscape.org/namespaces/inkscape" class="st1" d="M116.6 27.6s0 .1-.1.1l.3-.3-.2.2z" id="path52" fill="#121212"/><path xmlns:inkscape="http://www.inkscape.org/namespaces/inkscape" class="st1" d="M117.1 26.9l.6-.6c.1-.1.1-.2.2-.3-.2.2-.5.5-.8.9z" id="path54" fill="#121212"/><path xmlns:inkscape="http://www.inkscape.org/namespaces/inkscape" class="st1" d="M107.4 28.8c-.4-.2-.6-.4-.6-.4l.2.1c.2.1.6.3.2 0-.5-.3-.6-.4-.9-.6.3.2.5.3.5.4.1.1 0 .1 0 .1s-.1 0 0 .1.2.2.6.4c-.1 0-.4-.2-.6-.3-.3-.2-.6-.4-.7-.6-.2-.2-.1-.2.1 0 .2.1.4.3.5.3-.3-.2-.4-.3-.4-.3-.1 0-.1-.1-.2-.1-.4-.3-.7-.7-1-1.1-.3-.4-.5-.7-.6-1-.2-.3-.3-.4-.3-.5-.1-.1-.1-.2-.2-.4-.1 0 0 .2.2.5.1.3.3.6.3.7 0 0-.1-.1 0-.1.1.2.2.4.3.5-.3-.5.1 0 .3.3.1.2.4.5.4.5-.1-.1-.2-.2-.2-.3.3.4.7.7 1 1.1 0 0-.1-.1-.2-.1.4.3.8.7 1.5 1-.1-.1-.3-.1-.4-.2.3.1.8.4 1.3.6.3.1.5.2.8.3.3.1.5.2.8.2-.1 0-.3-.1-.2-.1.6.1 1 .2.7.2.3 0 .8.1 1.4.1.6 0 1.2-.1 1.6-.2.3-.1.6-.2.8-.3.3-.1.5-.3.8-.4.5-.3 1-.6 1.4-1-.1.1-.2.2-.3.2-.3.1-.4.2 0-.1-.2.2-.3.2-.4.3-.1.1-.2.2-.6.3l.2-.2s-.2.1-.5.2c-.4.2-.8.4-1.2.5l-1.2.3c-.2 0-.4.1-.6.1h-.6c-.4 0-.8 0-1.3-.1 0 0-.4-.1-.8-.3-.4-.1-.9-.4-1.2-.5.3.1.7.3 1.2.4-.3-.1-.9-.3-1.2-.5h-.7z" id="path56" fill="#121212"/><path xmlns:inkscape="http://www.inkscape.org/namespaces/inkscape" class="st1" d="M111.7 29.6h-.2.2z" id="path58" fill="#121212"/><path xmlns:inkscape="http://www.inkscape.org/namespaces/inkscape" class="st1" d="M109 29.3h-.2.2z" id="path60" fill="#121212"/><path xmlns:inkscape="http://www.inkscape.org/namespaces/inkscape" class="st1" d="M116.2 27.7l.2-.2c0 .1-.1.1-.2.2 0 0-.1.1 0 0z" id="path62" fill="#121212"/><path xmlns:inkscape="http://www.inkscape.org/namespaces/inkscape" class="st1" d="M116.5 27.6s.1 0 0 0c.1-.1.1-.1 0 0z" id="path64" fill="#121212"/><path xmlns:inkscape="http://www.inkscape.org/namespaces/inkscape" class="st1" d="M103.6 22.9l-.1-.2c0 .1.1.1.1.2z" id="path66" fill="#121212"/><path xmlns:inkscape="http://www.inkscape.org/namespaces/inkscape" class="st1" d="M105.7 27.4c.2.2.3.2.3.3.1 0 .1.1.5.4l-.2-.2c.3.2.7.5 1.1.7.4.2.9.4 1.2.6 0 0 .1 0 .2.1.1 0 .2.1.2.1.5.1 1.1.2 1.4.2.3.1.8 0 1.3.1-.1 0 .1 0 .1-.1h-.5.1-.8c-.2 0-.4 0-.7-.1h.2c-.4 0-.9-.2-1.4-.3-.4-.2-.8-.3-.8-.2-.5-.2-.5-.3-.7-.4-.2-.1-.5-.2-.7-.4-.3-.2-.5-.4-.8-.7-.5-.5-.8-.9-.8-.9.2.1.5.5.8.8z" id="path68" fill="#121212"/><path xmlns:inkscape="http://www.inkscape.org/namespaces/inkscape" class="st1" d="M115.3 28.3s-.1 0-.1.1l.1-.1z" id="path70" fill="#121212"/><path xmlns:inkscape="http://www.inkscape.org/namespaces/inkscape" class="st1" d="M116.1 27.8c0-.1.1-.2.1-.2.5-.5.7-.8 1-1.2.2-.4.4-.7.6-1.2l.4.9s-.1 0-.1-.1h.1l-.4-.9.4.9c-.1 0-.2-.1-.2-.1l.8-.2c-.3.4-.6.8-1 1.2-.3.4-.7.7-1 .9-.1.1-.4.3-.5.4-.2.1-.3.2-.2.1-.1.1-.3.2-.4.3-.1 0 .3-.2.3-.2-.1.1-.2.1-.2.1.1-.1 0-.1 0-.1s.1-.1.6-.5c.2-.1 0 0-.1.1-.2.1-.4.3-.2.2.3-.2.2-.2.3-.2.4-.3.4-.3.4-.2.1-.1.6-.5.7-.7.6-.6 0 .1.4-.3.1-.1.1-.2.2-.3.2-.2.4-.5.6-.8v-.1l-.7.2c.1 0 .2.1.2.1l-.3-.7c-.1.3 0 .2 0 .2v.1c0 .1-.1.3-.2.5 0-.2-.3.3-.7.8.1-.2.3-.4.4-.6.1-.3.3-.5.4-.7-.2.4 0 0 .1-.3l.3.7c-.1 0-.2-.1-.2-.1l.7-.2c-.1.1-.1.1 0 .1l-.8.2c.1 0 .2 0 .2.1l-.4-.8c-.1.3-.3.7-.4 1 0 0 0-.1.1-.1l-.3.6c-.1.2-.3.4-.5.7-.2.2-.2.2-.2.1l-.3.3zm.5-.5l.3-.3c-.1 0-.2.2-.3.3z" id="path72" fill="#121212"/><path xmlns:inkscape="http://www.inkscape.org/namespaces/inkscape" class="st1" d="M122.4 8.7v.2c-.1-.1 0-.1 0-.2z" id="path74" fill="#121212"/><path xmlns:inkscape="http://www.inkscape.org/namespaces/inkscape" class="st1" d="M101.3 26.1l-.1-.3c0 .1.1.2.1.3z" id="path76" fill="#121212"/><path xmlns:inkscape="http://www.inkscape.org/namespaces/inkscape" class="st1" d="M99.5 19.9v-.4.4z" id="path78" fill="#121212"/><path xmlns:inkscape="http://www.inkscape.org/namespaces/inkscape" class="st1" d="M122 5.3c-.1-.1-.1-.1 0 0z" id="path80" fill="#121212"/><path xmlns:inkscape="http://www.inkscape.org/namespaces/inkscape" class="st1" d="M103.8 8l.2-.2c-.1 0-.1.1-.2.2z" id="path82" fill="#121212"/><path xmlns:inkscape="http://www.inkscape.org/namespaces/inkscape" class="st1" d="M99.5 20s0-.1 0 0c0-.1 0-.1 0 0z" id="path84" fill="#121212"/><path xmlns:inkscape="http://www.inkscape.org/namespaces/inkscape" class="st1" d="M102.8 28.6l.1.1-.1-.1z" id="path86" fill="#121212"/><path xmlns:inkscape="http://www.inkscape.org/namespaces/inkscape" class="st1" d="M102.7 28.1l.1.1z" id="path88" fill="#121212"/><path xmlns:inkscape="http://www.inkscape.org/namespaces/inkscape" class="st1" d="M111.8 31.4c.1 0 .3-.1.4-.1-.2 0-.3.1-.4.1z" id="path90" fill="#121212"/><path xmlns:inkscape="http://www.inkscape.org/namespaces/inkscape" class="st1" d="M103.4 28.9s-.1-.1 0 0z" id="path92" fill="#121212"/><path xmlns:inkscape="http://www.inkscape.org/namespaces/inkscape" class="st1" d="M121 10.8z" id="path94" fill="#121212"/><path xmlns:inkscape="http://www.inkscape.org/namespaces/inkscape" class="st1" d="M120.3 11.5l-.1.1-.2.1c.1-.1.3-.1.3-.2z" id="path96" fill="#121212"/><path xmlns:inkscape="http://www.inkscape.org/namespaces/inkscape" class="st1" d="M107.9 4.3c.1 0 .3-.2.2-.1.2-.1.1-.2-.2.1z" id="path98" fill="#121212"/><path xmlns:inkscape="http://www.inkscape.org/namespaces/inkscape" class="st1" d="M121.4 9.1v.2c0-.2.1-.3 0-.2z" id="path100" fill="#121212"/><path xmlns:inkscape="http://www.inkscape.org/namespaces/inkscape" class="st1" d="M121.4 9.3c0 .1 0 .1-.1.2.1-.1.1-.2.1-.2z" id="path102" fill="#121212"/><path xmlns:inkscape="http://www.inkscape.org/namespaces/inkscape" class="st1" d="M106.4 6.4s-.1 0 0 0c-.1.1-.1 0 0 0z" id="path104" fill="#121212"/><path xmlns:inkscape="http://www.inkscape.org/namespaces/inkscape" class="st1" d="M119.8 11.8l-.6.3c-.1 0-.2.1-.1.1h.1c.1 0 .2 0 .3-.1 0 0-.1 0-.1.1-.1 0-.2.1-.3.1-.1 0-.2.1-.4.1-.1 0-.2 0-.3.1.2 0-.1.1 0 .1.2 0 .4-.1.6-.2.1 0-.3.1-.6.2.2 0 .1 0 0 0s-.2.1.1 0c1.2-.2 2.1-.7 2.7-1.4-.3.3-.6.5-.9.7-.3.2-.6.3-.9.4.1 0 .1-.1.2-.1.3-.1.6-.2.8-.3.2-.1.4-.3.7-.5-.4.1-.9.3-1.3.4-.3.2-.4.2-.3.2.1 0 .3-.1.5-.3-.1.1-.2.1-.2.1z" id="path106" fill="#121212"/><path xmlns:inkscape="http://www.inkscape.org/namespaces/inkscape" class="st1" d="M120.3 10.9s0 .1 0 0z" id="path108" fill="#121212"/><path xmlns:inkscape="http://www.inkscape.org/namespaces/inkscape" class="st1" d="M111.5 30.3h.1c-.1-.1-.1 0-.1 0z" id="path110" fill="#121212"/><path xmlns:inkscape="http://www.inkscape.org/namespaces/inkscape" class="st1" d="M121.1 10.6z" id="path112" fill="#121212"/><path xmlns:inkscape="http://www.inkscape.org/namespaces/inkscape" class="st1" d="M108.8 30.3z" id="path114" fill="#121212"/><path xmlns:inkscape="http://www.inkscape.org/namespaces/inkscape" class="st1" d="M107.8 31.3s0 .1 0 0c.1.1.1.1 0 0z" id="path116" fill="#121212"/><path xmlns:inkscape="http://www.inkscape.org/namespaces/inkscape" class="st1" d="M108.8 30.3z" id="path118" fill="#121212"/><path xmlns:inkscape="http://www.inkscape.org/namespaces/inkscape" class="st1" d="M100.6 21v0z" id="path120" fill="#121212"/><path xmlns:inkscape="http://www.inkscape.org/namespaces/inkscape" class="st1" d="M101 23.7c.1 0 .1 0 0 0z" id="path122" fill="#121212"/><path xmlns:inkscape="http://www.inkscape.org/namespaces/inkscape" class="st1" d="M107.2 4.4c-.1.1-.2.1-.3.2.1 0 .2-.1.3-.2z" id="path124" fill="#121212"/><path xmlns:inkscape="http://www.inkscape.org/namespaces/inkscape" class="st1" d="M108.8 30.3h0z" id="path126" fill="#121212"/><path xmlns:inkscape="http://www.inkscape.org/namespaces/inkscape" class="st1" d="M100.5 16.8c0 .1 0 .1 0 0z" id="path128" fill="#121212"/><path xmlns:inkscape="http://www.inkscape.org/namespaces/inkscape" class="st1" d="M100.8 15.4v.1c0-.3.1-.6.2-.9l.2-.6c0 .1-.1.3-.2.6-.1.2-.1.4-.1.3-.1.3-.3.9-.3 1 .2-.6.1-.1 0 .3s0-.1-.1.2c-.1.3-.1.6-.1.8 0-.2.1-.5.1-.7v.1c.1-.6.1-.6.2-.7 0 .2 0 .1.1-.5z" id="path130" fill="#121212"/><path xmlns:inkscape="http://www.inkscape.org/namespaces/inkscape" class="st1" d="M100.8 15.5v0z" id="path132" fill="#121212"/><path xmlns:inkscape="http://www.inkscape.org/namespaces/inkscape" class="st1" d="M102.7 10.9c0-.1.1-.1.1-.2 0 0 0 .1-.1.2z" id="path134" fill="#121212"/><path xmlns:inkscape="http://www.inkscape.org/namespaces/inkscape" class="st1" d="M118.3 25.5s0-.1 0 0c0 0 .1 0 .2.1l-.2-.1v.2c0-.1.1-.2.1-.3l.1.1z" id="path136" fill="#121212"/><path xmlns:inkscape="http://www.inkscape.org/namespaces/inkscape" class="st1" d="M113 2.5h-.2c0 .1.1 0 .2 0z" id="path138" fill="#121212"/><path xmlns:inkscape="http://www.inkscape.org/namespaces/inkscape" class="st1" d="M100.9 14.6v0z" id="path140" fill="#121212"/><path xmlns:inkscape="http://www.inkscape.org/namespaces/inkscape" class="st1" d="M113.1 2.6h.3c.2 0 .3-.1.6-.1-.3 0-.6.1-.9.1z" id="path142" fill="#121212"/><path xmlns:inkscape="http://www.inkscape.org/namespaces/inkscape" class="st1" d="M113.9 2.5z" id="path144" fill="#121212"/><path xmlns:inkscape="http://www.inkscape.org/namespaces/inkscape" class="st1" d="M118 25.8c0 .1-.1.1-.1.2l.1-.2-.4.4s-.1.1-.1.2v-.1l-.1.1c-.1.2-.3.4-.6.7-.2.2-.5.4-.6.5-.3.2-.7.5-.9.6.2-.1.5-.3.4-.3-.2.1-.4.2-.7.3-.2.1-.5.2-.9.5.2-.1.3-.1.5-.2-.4.2-.7.4-1.1.5-.2 0-.1 0 .2-.1.2-.1.5-.2.6-.3-.4.2-.9.3-1.3.4-.4.1-.7.1-.9.2-.1-.1-.2-.1-.8-.1.5.1-.4 0 0 .1-.2 0-.7-.1-.7 0h.1c-.5-.1-.9-.2-1.2-.2-.3 0-.5-.1-.7-.1-.6-.2-1.1-.4-1.4-.7-.4-.2-.7-.5-1.1-.9 0-.1-.2-.3-.4-.6l-.5-.5c-.2-.2-.3-.4-.4-.5.2.3.3.4.4.5.1.1.2.1.3.3.2.3 0 .1.3.5-.1-.2-.5-.5-.8-.9-.3-.4-.5-.8-.6-1l.1.1c-.2-.3-.2-.5-.3-.8-.1-.3-.2-.6-.4-1.1-.1-.2-.1-.4-.2-.5-.1-.5-.1-.6-.2-.8 0-.2-.1-.4-.2-.9v.1c-.1-.6-.2-1.2-.2-1.6 0-.3.1.1.1.2 0-.5 0-1.1-.1-1.6v-1.3c0-.2.1-.4.1-.7v.8c0-.4 0-.3.1-.8v.6c.1-.5.1-.6.1-.6l.1-.4c.1-.3 0-.5 0-.6.1-.2.1-.4.2-.6 0-.1.1-.8.3-1.3 0-.1-.2.4-.2.6 0 0 .1-.6.2-.9.1 0 .2-.6.4-1 .2-.5.3-.9.3-.6.3-.7.7-1.6 1.1-2.3.4-.8.9-1.4 1.2-1.8.2-.3.7-.8.4-.4.4-.5.7-.8 1-1.2.3-.3.7-.6 1.2-1 .1-.1-.5.3-.4.3.3-.3.6-.5 1-.7l1.4-.7c-.2.1-.2.1-.3.1 0 0 .5-.2.8-.4.2-.1-.2.1-.1.1 1.1-.4 2.2-.5 3.3-.6.5 0 1.1 0 1.6.1s1.1.3 1.6.7c-.3-.2-.5-.3-.7-.4-.1-.1-.2-.1-.2 0l.6.3c.1.1.3.2.4.3.2.1.3.3.5.5 0 .1.1.2 0 .1.2.3.3.6.4.8.1.3.2.5.2.8 0 .3.1.6.1.9 0 .3-.1.7-.2 1.1 0-.3.1-.7.1-1 0-.3 0-.7-.1-1v.5c0-.3-.1-.6-.1-.8.1.5.1.9.1 1v-.4.9c0-.5 0-1.2-.2-1.9-.1-.3-.3-.6-.5-.9-.2-.3-.4-.5-.6-.6l.1.1c-.2-.1-.3-.2-.4-.3-.1-.1-.3-.2-.6-.3-.3-.1.2.1.4.2 0 0-.2 0-.4-.1 0 0-.4-.2-.8-.3-.4-.1-.9-.1-1.1-.2h-.6c-.1 0 0 0 0 0s.1 0 0 0h-1c-.4.1-.9.2-1.4.4-.5.2-.9.4-1.4.6.1 0 .1-.1.2-.1.1-.1-.1 0-.2 0-.7.3-1.2.7-1.6.9-.3.3-.7.6-1.1 1.1-.4.4-.8.9-1 1.3-.1.1.1-.2.3-.5.2-.3.6-.7.7-.8l-.6.6c.4-.4.5-.6.7-.8-.3.3-.4.5-.6.7-.2.2-.3.4-.5.7 0-.1-.1 0-.3.3v.1l-.1.1c-.2.4-.5.7-.7 1.1.2-.2.2-.2.4-.5-.1.1.1-.2.2-.4-.1.3.2-.2.2-.2l-.6.9c-.2.3-.3.6-.4.8l-.1.1-.8 1.6v-.1c-.3.7-.5 1.4-.8 2.1-.2.7-.3 1.5-.4 2.1 0 .2-.1.6-.2 1.2s-.2 1.2-.1 1.5v-.8c-.1.5 0 .9-.1 1.1.1-1.1-.1.1 0-.5v1.4c0-.9.1.3.1-.6 0 .7.1 1.6.2 2.4v.4l.1.2c.1.4-.2-.7-.1 0 .1.4.2.9.4 1.5.2.5.3.9.5 1.1.1.3 0 0-.1-.2s-.2-.4-.1 0c-.2-.5-.4-1.2-.5-1.3.2.5 0 .2.1.5.1.2.1.4.2.5v-.1c.2.4.4 1 .8 1.6.3.6.7 1.1 1.1 1.5.4.3.7.6 1.1.8l1.4.7c-.2-.1.1.1.2.1.2.1.3.1 0 0 .5.2 1.1.3 1.1.3-.2-.1-.3-.1-.3-.1s-.1 0-.3-.1c.1 0 .4.1.6.1.2 0 .4.1.6.1h-.1H112c.3 0 .6 0 .7-.1.2 0 .4-.1.5-.2-.1.1 0 0 .2 0s.4-.1.4-.1c.4-.2.7-.3 1.2-.6-.1.1 0 0 .2-.1s.3-.2.4-.2c.5-.3.8-.6 1.1-.9.3-.3.6-.6.9-1 0 0-.1.2.1 0 .1-.2.3-.4.4-.6l.2-.3.4.1h.2l.4.1-.1.4v.1c-.1.2-.1.4-.2.6-.1.2-.2.5-.5.9 0 0 .2-.2.3-.4.1-.2.3-.5.3-.7 0-.1 0-.2.1-.3 0-.1.1-.1.1-.2l.2-.5-.5-.2c-.1 0-.2-.1-.2-.1l-.5-.2-.2.4c-.1.2-.2.3-.3.4.1-.1.1-.2.2-.4l.2-.4.5.2c.1 0 .2.1.2.1l.5.2-.2.6c-.1.4-.3.8-.5 1.1-.2.4-.4.7-.6 1 .2-.2.4-.4.6-.8.2-.4.5-.8.6-1.3l.2-.7-.7-.3c-.1 0-.2-.1-.2-.1l-.6-.2-.4.5c-.1.1-.1.2-.2.3.1-.1.1-.2.2-.3l.4-.5.5.2h.1-.1l-.6-.2-.3.5c-.1.1-.2.2-.2.3l.3-.3.4-.5.4.2h0l-.5-.2-.3.5c-.3.4-.5.7-.8 1 .3-.4.5-.5.3-.3l-.4.4c-.1.1-.2.2-.3.4.2-.2.4-.4.3-.2-.3.3-.5.5-.7.6-.2.2-.4.3-.8.5.1 0-.1.1-.4.3-.2.1-.5.3-.5.3.1-.1.2-.1.3-.2-.2.1-.4.3-.7.4-.7.2.6-.3-.5.1-.5.2-.7.2-.9.3-.2.1-.4.1-.8.1.3-.1.8-.2 1.4-.4-.1 0-.2.1-.4.1.1 0 .3-.1.6-.2s.6-.2.8-.3c-.3.2-.2.1 0 .1.2-.1.5-.3.6-.3 0-.1-.4.2.1-.1-.2.1-.3.2-.5.3-.1.1-.3.2-.6.3.6-.3.9-.5 1.1-.7.2-.2.4-.4.9-.7-.4.4.2-.1.3-.1l.7-.7-.2.1c.3-.4.6-.6.8-.9l.4-.5.6.2c.1 0 .2.1.2.1l.7.3-.2.7c0 .1-.1.2-.1.3 0 .1.1-.1.1-.3l.2-.7-.7-.3c-.1 0-.2-.1-.2-.1l-.6-.3-.4.6c0 .1-.1.1 0 .1v-.1l.4-.6.7.3c.1 0 .2.1.2.1l.7.3-.2.8c-.2.5-.4.9-.6 1.2-.2.3-.5.6-.8 1 0 .1 0 .1-.2.4.1-.1-.2.1.1-.3-.3.3-.6.6-.8.9.3-.3.3-.2.1 0-.1.2-.4.4-.4.4l.3-.3c-.3.2-.6.4-.7.6l.4-.4.7-.7-.3.3.5-.5c-.3.3-.3.2-.3.1.2-.2.4-.4.3-.4.1-.1 0-.1-.1.1l-.4.4c-.1.1-.2.2-.4.3-.4.4-.8.8-1.3 1.2-.3.2-.5.3-.8.4-.2.1-.4.2-.7.3l-.1.1c-.6.2-1.2.4-.8.2 0 0 .1 0 .2-.1h.1c-.6.3-1.1.4-1.1.4.6-.2.6-.2.4-.2h-.3c-.4.1-.7.2-1.1.3.7-.1 0 .1-.2.1h-1.4c-.4 0-1-.1-1.5-.1h-.9c.8.2.3.1.4.2-.1 0-.2-.1-.3-.1-.1 0 .2.1.2.1.9.2 1.8.2 2.1.1h-.7 1.8c.2 0 .5-.1.7-.1-.1 0-.2.1-.3.1-.1 0-.2.1-.6.1h.5c.2 0 .5-.1.8-.1.1 0 .1-.1.2-.1-.1.1.9-.2.2 0l-1.2.3h.3c-.3.1-.7.1-1 .1h.2-2.2c-.2 0-.5 0-.8-.1-.3 0-.7-.1-1.2-.3.7.2.1 0 .4 0-.3-.1-.6-.2-.8-.2-.2-.1-.3-.1-.5-.1l-.1-.1s.1 0 .4.2c.1 0-.1-.1-.4-.2l-.4-.2c-.5-.2-.8-.4-1.1-.6-.3-.1-.5-.3-.7-.4-.2-.1-.4-.3-.7-.5-.3-.2-.6-.5-1-1.1l.1.1c-.5-.6-.8-1.1-1.1-1.7-.3-.5-.5-1.1-.8-1.7-.1-.4-.2-.7-.3-1.1.1.2.3.9.3.6.1.5.3 1.1.5 1.6 0 0 0-.2-.1-.3.1.3.2.5.4.9 0 0-.2-.5 0-.2l.3.6c.2.4.3.4.4.5.1.1.2.2.5.6-.2-.1-.4-.4-.7-.7.1.2 0 .1-.1-.1-.1-.1-.2-.3-.1-.1.2.3.4.5.5.7.2.2.4.5.7.8-.1-.1-.1-.1-.3-.2.3.3.6.7.9.9-.1-.1.1.1.3.2.2.2.5.3.5.3-.3-.2-.5-.4-.6-.5l-.3-.3-.3-.3c-.1-.1-.3-.3-.6-.7.3.3.7.7 1 .8l.1.1c.2.1 0-.1.1-.1-.3-.2-.5-.4-.7-.6-.2-.2-.4-.5-.7-.8-.1 0 0 .1.1.2.1.2.3.4.4.5-.2-.2-.3-.4-.5-.6l.1.1c-.4-.5-.7-1-1-1.6.2.3.3.4.4.5l-.3-.6c0 .1-.1.1-.2-.1-.3-.5-.4-1-.5-1.3-.1-.4-.2-.6-.2-.8v-.1c0 .1-.1-.1-.2-.4-.1-.3-.2-.6-.2-.8.1 0-.1-.6-.1-.9-.1-.2-.1.1-.1.5.2.8.1.4.3.8.1.4.2.8.4 1.2l-.1-.3c.2.6.5 1.2.4 1.2-.2-.3-.3-.8-.5-1.2 0 .1.1.3.1.4-.1-.4-.2-.5-.2-.6 0-.1 0-.3-.2-.7 0 .3 0-.1-.1-.5 0 .2.1.6.2.9.1.3.1.6.1.5-.1-.2-.2-.6-.2-1-.1-.4-.1-.8-.2-1.2-.1-.9-.1-1.2-.2-1.6v-1.4-.6c0 .3-.1.7-.1 1.2l.1-.1c-.1.6 0 1 .1 1.5 0-.3-.1-.8-.1-1.2v-.8c0-.1.1-.3.1-.4v-.2c.1-.3.1 0 .1.6v.9c0 .8.1 1.6.2 1.9-.1-1.2-.1-2.4 0-3.5-.1-.3-.1-.7-.2-.9.1-.8.3-1.8.5-2.4v.1c.1-.3.2-.6.3-.8.1-.3 0 .2.1 0 .1-.3.2-.7.3-1 0 0-.1.3-.2.5-.1.3-.2.6-.3.8 0-.1.1-.2 0-.2-.1.2-.2.6-.3.9-.1.3-.1.6-.2.7 0 .2.1-.5-.1.3-.1.5-.1.7-.1.8 0 0 .2-.9.2-.5.1-.4.1-.6.3-1.1-.1.4-.2 1-.3 1.2-.1.4 0 .6 0 .6s.1-.1.1-.3c0 0 0-.3.1-.6 0-.3.1-.4-.1.1 0-.5.3-1.4.4-2 .1-.3.2-.5.3-.8 0 .1-.1.3-.1.4.1-.4.2-.7.3-1.1-.2.6.2-.4.3-.6 0-.1.2-.5 0-.2-.2.4-.1.3-.3.7.1-.2.1-.4.2-.6l.1-.4c.4-.8-.1.4.4-.6l-.1.1c.3-.6.7-1.2 1-1.7.4-.6.7-1 1-1.4-.1.2-.1.3.1.1-.2.3-.7.9-.9 1.4-.1.1.3-.6.6-1.1-.1.1-.3.4-.5.7-.2.3-.3.6-.4.6-.4.6-.5.9-.6 1.1l-.5 1s-.1.3-.1.4c.1-.2.3-.5.5-1 .2-.4.5-.9.7-1.2 0 .1-.1.2-.1.2.3-.5.4-.7.6-1.1.4-.6.3-.3.5-.7.1-.1.5-.6.4-.5.2-.2.3-.4.5-.6h-.1c.3-.3.4-.4.6-.7v-.1c-.2.3-.5.5-.7.8.3-.4.1-.2.4-.6-.2.3-.1.2 0 0s.4-.4.4-.4l.3-.3-.1.1c.3-.2.3-.3.6-.6-.4.3-.6.5-1 1 .3-.3.9-1 1.1-1.1.3-.3.6-.5 1-.8-.3.3-.2.3-.2.3 0 .1-.1.1-.7.7 0 0 .1-.1.2-.1-.1 0-.3.2-.5.4s-.4.4-.5.6c.1 0-.2.2.3-.2-.2.1.3-.4.8-.8v.1c.2-.2.4-.4.7-.6l-.1.1c.3-.2.7-.6 1.3-.9.2-.1.6-.4 1-.6.3-.2.5-.3.2-.2.5-.2.9-.5 1.5-.7-.2.1-.5.2-.7.2.4-.2.5-.3.7-.3.1-.1.2-.1.6-.3h.1c.6-.2 1.3-.3 1.9-.4.7-.1 1.3-.1 1.6-.2.4 0 .7 0 1 .1.3 0 .6.1 1.2.1h.1s.1 0 .5.1c.1 0-.8-.1.1.1.6.1 1.4.4 2.2.8.2.1.4.3.6.4.2.1.3.3.2.2-.3-.2-.6-.5-.9-.7-.3-.2-.6-.3-.6-.3.1 0-.4-.2 0 0-.5-.2-.6-.3-.8-.3-.2 0-.3-.1-.7-.2-.1 0 .5.2.6.2 0 0-.4-.1-.8-.1-.3-.1-.6-.1-.2 0 .5.1.8.1 1.1.2.3.1.6.1 1 .4-.3-.1-.8-.3-1.3-.4.2.1.4.2.7.2.2 0 .3.1.5.1.5.3.8.4 1 .6.2.1.5.3.9.7-.2-.3-.2-.3-.1-.2.1 0 .1.1 0-.1.6.6.9 1.1.8 1.1-.2-.3-.3-.4-.4-.5l-.1-.1h-.1l-.4-.4c.1.1 0 0 0 .1 0 0 0 .1.3.4l.2.2c0-.1-.1-.1.2.2v.1c.1.2.2.3.2.4.1.1.1.2.2.5l.6.2c.1.3.2.4.2.6.1.1.1.3.1.5 0-.1 0 0 .1.1 0 .2.1.4.1.5v-.7c0-.3-.1-.6-.3-1.1 0-.1-.1-.1-.1-.1s-.1-.1-.2-.3l.3.6c-.1-.1-.1-.2-.2-.4l-.3-.6c.2.3.3.4.3.5 0 0 .1 0 .2.2.1.4.2.5.2.6 0 .1.1.2.1.4v1.5c0 .3-.1.5-.1.7 0-.1 0-.3.1-.3 0-.5 0 .1-.1.3v.1c0 .2 0 .3-.1.5 0-.1 0-.2 0 0-.1.3-.1.4-.2.6 0 .1-.1.3-.3.6V10c0-.1 0-.1-.1 0 0 0-.1.2-.3.3l-.7.7s-.2.2-.4.3c0 0 .1 0 .1-.1l-.2.1-.2.1c.2-.1.4-.2.6-.4.2-.1.4-.3.5-.5v-.1l.4-.4c.1-.2.2-.3.2-.4-.1.2-.2.4-.3.5-.1.1-.2.3-.4.5-.1 0 .2-.3.2-.3v.1c.3-.2.4-.5.5-.7.1-.3.2-.5.4-1 0-.1 0 0 0 0v-.3c.1-.6.1-1.1 0-1.7 0 .1 0 .1.1.2 0-.2-.1-.6-.2-.9-.1-.4-.3-.8-.6-1.1 0 .1-.1-.2-.2-.3-.3-.3-.6-.6-.9-.8l.3.3c.1 0 .2.2.4.3.1.1.2.3.2.2l.3.6c.1.2.2.4.2.5-.1-.2 0-.2 0 0 .1.1.1.4.2.4 0 .1 0 .3.1.4v.3c0 .1 0-.2-.1-.5-.1-.2 0 0 0 .2v.1c.1.3.1.5.1.9 0 .3 0 .6-.1.9 0 .3-.1.6-.2.9.1-.1.1-.3.2-.4-.1.2-.2.5-.3.7-.1.2-.3.4-.3.5.2-.2.3-.5.5-.8l-.2.4c-.1.2-.2.4-.3.4-.2.3-.4.6-.7.8l.3-.3c-.1.1-.3.3-.6.5s-.7.4-1 .5c.2-.1.4-.2.7-.3.3-.1.6-.3.8-.6.2-.2.1-.2 0-.1h-.1l.1-.1c-.1.1-.3.3-.5.4l-.2.1c.2-.1.4-.4.7-.7.2-.3.4-.6.5-.9v.1c.2-.3.3-.6.3-.9 0-.2 0-.3.1-.4 0 .2-.1.3-.1.4v-.5c-.1.4 0 .1-.1.4v-.9c0-.2 0 .2.1.1v-.5c0-.2 0-.3-.1-.6.1.4 0 .3 0 .2 0-.2-.1-.4-.2-.5v.1c-.1-.2-.2-.4-.2-.5.1.3.2.5.2.4-.1-.2-.1-.4-.2-.5 0 .1.1.1.1.2-.1-.3-.3-.6-.5-.8-.1-.1-.3-.3-.4-.3-.1-.2-.4-.4-.6-.5h.1c-.2-.1-.4-.3-.7-.5-.3-.1-.5-.2-.6-.2-.1-.1.4.1.7.2.1.1.2.1.2 0-.1 0-.3-.2-.8-.4-.4-.2-.5-.2-.6-.2h-.4c-.3-.3-.3-.2-.6-.3.2 0 .5.1.6.1-.1 0-.2 0-.4-.1-.2 0-.4-.1-.6-.1.2 0 0 0-.2-.1h-.2c-.7-.1-1.5 0-1.9.1-.5 0-.9.1-1.7.2.1 0 .3-.1.5-.1.2-.1 0 0-.2 0s-.3.1 0 0h.1c.3-.1.5-.1.5-.1-.2 0-.4 0-.7.1l.2-.1c-.3 0-.7.1-1 .2h.1c-1.2.3-2.4.9-3.3 1.4 0 .1-.6.4-1.2.9-.6.4-1.2 1-1.4 1.3.1-.2.2-.3.1-.2l.7-.7c.1 0 .5-.3.2-.1.9-.7-.2 0 .1-.2-.5.4-.9.8-1.2 1.1-.3.3-.6.6-.8 1-.1.2-.3.3-.4.5.3-.4.4-.3-.1.2v-.1c-.3.3-.7.9-1 1.4l-.2.4c-.3.5-.4.5-.5.6-.5.8-.6 1.3-.9 1.9-.1.1-.3.5-.4.8-.1.3-.2.4-.1.1-.1.4-.1.6-.2.8 0 .2-.1.5-.4 1.2l.1-.4c-.2.6-.4 1.5-.5 2.2-.1.7-.2 1.4-.2 1.7 0-.3-.1.2-.2.7 0 .5 0 1.1-.1 1.3 0-.1.1.4.1.5 0 .1 0 .3.1.5 0-.3 0-.2.1-.1v-.5c.1.2.1.5.2.9s.2.8.3 1.3h-.1c-.1-.3-.1-.6-.2-.9 0 .1-.1-.4-.1-.5.1.8.1.8.1.7 0 .1 0 .3.2.7.1.1 0 .1.2.5-.1-.2-.1-.2 0 .1 0 .1.1.2.1.3.1.3 0 .1-.1-.2-.1-.2-.2-.5-.1-.2-.1-.3-.2-.7-.3-1.1-.1-.3-.1-.6-.2-.4.1.5.2.8.3 1 .1.2.2.5.4 1v.1l.3.6s0 .1.1.4c.3.6.6.9 1 1.4-.5-.7-.6-1-.7-1.3-.1-.3-.3-.6-.6-1.4.1.1.2.5.3.8.1.3.3.6.3.6h-.1c.3.5.5.9.9 1.5l-.3-.3c.3.4.5.7.7.9.2.3.4.5.7.7l-.4-.4c.3.3.7.7 1.1 1 .3.2.6.3.9.5 0 0 .5.3.2.2.3.2.6.3.8.4.2.1.4.1.6.2.3.1.2.1-.1 0-.3-.1-.6-.2-.7-.2.5.2 1 .4 1.5.5.5.1.9.1 1.2.1-.2 0-.3-.1-.3-.1s.4.1.7.1h.2c.4 0 .3.1 0 .1h1.2-1.8c.7 0 1 .1 1.4.1.4 0 .8 0 1.6-.2 0 0-.2.1.1 0 .7-.2.2-.1.4-.2-.5.2-.8.2-1.1.2l.1-.1s.4-.1.5-.1l.1-.1c0 .1.5 0 1-.2-.5.1-.3.1-.5 0 .3-.1.5-.2.6-.2.2-.1.4-.1.7-.3 0 0-.6.3-.1.1.4-.2.3-.2.6-.4-.3.2-.2.2-.5.4-.4.2-.4.2-.5.2-.1 0-.1.1-.5.2.2-.1.4-.1.6-.2-.3.1-.4.2-.5.2v.1c.6-.2.8-.3.9-.4.1-.1.2-.2.6-.4l-.1.1c-.1.1-.2.1 0 0 .3-.2.3-.2.4-.2 0 0 .1-.1.4-.3l-.1.1c.2-.1.4-.3.6-.4.1-.1 0-.1 0-.1 0-.1.1-.2.5-.6v.1c-.2.4-.4.8-.7 1.1.5-.4 1.1-.8 1.6-1.4.5-.5.9-1.2 1.2-1.8.1-.1 0 .1-.1.4-.1.3-.3.6-.3.5-.1.2-.3.4-.4.6l.4-.6c.1-.2.2-.4 0-.2-.3.5-.6.9-.9 1.2l-1 1c.2-.1.5-.3.8-.6.3-.3.6-.7.9-1-.2.3-.4.5-.5.7.5-.5 1-1.1 1.3-1.9 0-.1 0-.1.1-.2-.2.5-.4.8-.5.9.3-.5.4-.9.5-1.1h-.2l.1.1-.2-.1h.1c-.1-.4-.2-.2-.3-.1zm0-22h-.1.1zm-10.8 26.8c.9.3 1.9.4 2.9.4-.9-.1-1.6-.2-1.7-.3h.2c.3 0 .7.1 1.4.1h.2c-.4 0-1 0-1.6-.1-.2 0-.7 0-1.2-.1-.2 0-.4-.1-.6-.1-.2 0-.2-.1-.2 0 .2.1.4.1.7.2zm-.6-.4c-.5-.2-.4-.1-.5-.2.2.1.4.2.5.2zm-.4-.1c.1 0 .1 0 .1.1zm10-1.5c.1 0 .2-.1.3-.2-.1 0-.1.1-.3.2zm-.9.6l-.1.1c.1-.1.2-.1.3-.2 0 0-.1 0-.2.1zm-3.3 1.3c-.1.1-.3.1-.5.2s-.4.1-.4.1h.3c.2 0 .4-.1.6-.1l.1-.1c-.2 0-.4.1-.3 0 .3 0 .4-.1.5-.1.1-.1.2-.1.5-.2.1-.1-.1 0-.3.1-.2 0-.4.1-.5.1zM118.9 3s.1 0 .1.1c-.1 0-.3-.1-.4-.1-.7-.3-1.3-.5-2-.5-.3-.1-.5-.1-.7-.2h.4c.5 0 .8.1 1 .1.2 0 .3.1.4.1.1 0 .2.1.3.1.3.3.5.3.9.4zm-8.8.4c.1 0 .1-.1 0 0-1.5.7-2.6 1.6-3.3 2.2.1 0 .3-.2.5-.3.2-.2.5-.3.7-.4-.1.1-.2.2-.3.2l-.2.1c-.2.1-.3.3-.4.4.2-.1.5-.4.8-.5 0 0 .2-.2.5-.4.2-.2.5-.4.6-.5-.3.1-.5.3-.7.4.1-.1.4-.2.7-.4.3-.2.7-.4.9-.5 0 0-.2.1-.4.1l-.4.2c-.1 0 .7-.4.2-.2.3-.2.7-.4 1.1-.5.4-.2.7-.3 1-.3h.1c.3-.1.3-.1.4-.2.1 0 .2-.1.5-.2-.8.2.1 0-.5.2.2 0 0 .1.6-.1.5-.2.6-.1 1.1-.2.3 0-.3.1.3 0 .7-.1.7-.1.7-.2-.3 0-.5.1-.7.1-.2 0-.3.1-.6.1.4-.1.7-.2 1.1-.2h-.5c.2 0 .4-.1.6-.1h.3c-.6 0-1.2.1-1.3.1h.1c-.2 0-.6.1-.8.1-.6.1-1.1.3-1.2.3l.2-.1c-.4.3-.6.4-.8.4-.2.1-.4.2-.9.4zm-9.7 19.4v-.9c0-.4-.1-1-.1-2v-1.3c0-.5.1-1.1.2-1.7v.6c0 .2.1-.4.2-.9v.4c-.1.3-.2 1-.1 1 0-.1 0 .2-.1.5 0 .3-.1.8-.1 1.1 0 0 0-.4.1-.6 0-.3.1-.4.1-.1 0-.5.1-.6.1-1.1 0 .5.1.1.1.5 0-.3 0-.6.1-.8v.5c0 .2 0 .4.1 0 0-.2 0-.5.1-.7 0-.3.1-.5.1-.5.1-.6 0-.3.2-1 0 0-.1.1-.1.4 0 .2 0 .3-.1.8-.1.2.1-.6 0-.3 0 .1-.1.4-.1.7 0 .3-.1.4-.1.3 0-.2.1-.4.1-.6-.1 0 0-.5 0-.5.1-.4.2-.7.3-1.1 0-.2-.1.1.1-.5.1-.2.3-.7.5-1.2s.4-1 .5-1.2c.1-.2.1-.3.2-.5-.1 0-.4.9-.3.6.1-.2.2-.5.3-.7v.1c.1-.2.2-.5.3-.7-.1.2-.4.7-.2.7.2-.3.2-.4.4-.7 0 .1-.1.1 0 .1.4-.6.3-.7.4-.8.2-.3 0-.2-.1 0-.2.2-.3.5-.3.5.3-.6.7-1.3 1.1-1.9-.1.2-.2.3-.1.3.3-.4 0 0 .5-.6 0 0 .1-.2.3-.5.2-.3.4-.6.6-.8.2-.2.2-.2-.1.2.1 0 .5-.6.7-.8l.4-.4c-.2.1-.1 0 .2-.3-.3.3-.7.6-1 .9-.3.3-.6.7-.7.9l.1-.1c-.6.7-1.1 1.6-1.4 1.9 0-.1-.1.1-.1.1l-.3.6v-.1c-.2.3-.4.7-.5 1-.2.5-.3.9-.4 1.2v.2c-.1.2-.1.3-.2.4-.1.3-.2.4-.3.7.1-.3.2-.7.4-1 0-.1-.1 0-.3.4.1-.2.1-.3 0 0 0 0-.2.7-.1.4-.2.5-.4 1.1-.6 1.8-.2.7-.4 1.5-.4 2.2.1-.5 0-.3 0-.1 0 .2-.1.4 0-.2-.1.4-.1.6-.1.8V18.5c-.1.7-.1 1.3 0 1.9 0 .6.1 1.2.2 1.9v.1c-.8-.2-.7.1-.7.4zm1 2.6c.1.2.2.5.4.7V26c.1.2.3.4.4.7-.1-.2-.2-.4-.2-.5 0-.1 0 0 .2.3 0 0 0 .1-.1 0 .1.2.3.5.5.7.2.2.3.4.2.2-.3-.3-.3-.4-.3-.4s0-.1-.2-.3c.2.3.4.6.7.8-.3-.3 0 .1.3.5l.4.4c.2.2.4.3.5.4-.1-.1.2.1-.3-.3.2.1.5.4.8.6-.1-.1-.4-.2-.4-.2.2.2.4.4.6.5.1.1.2.1.4.2 0 0-.1 0-.1-.1.1.1.3.1.4.2-.5-.3-.2-.2-.2-.2s.3.2.5.3c-.1-.1-.3-.2-.4-.2.2.1.7.4.6.3-.4-.2-.7-.4-1-.5-.3-.2-.5-.3-.9-.6.1.1.2.2.3.2-.4-.3-.5-.4-.6-.5-.1-.1-.2-.3-.6-.6-.2-.1-.4-.4-.7-.7-.2-.3-.4-.5-.4-.5s0-.1-.1-.3c-.1-.2-.3-.5-.4-.6-.1-.2-.3-.5-.5-.8-.1-.3-.2-.5-.2-.3.1.3.3.7.4 1l-.3-.6c0 .1.1.3.1.4.2-.2.2-.2.2-.1zm12.7 5.2z" id="path146" fill="#121212"/><path xmlns:inkscape="http://www.inkscape.org/namespaces/inkscape" class="st1" d="M120.7 11.1l-.1.1c-.1 0-.1.1-.2.1-.1.1-.2.1-.1.1l.1-.1c.1 0 .1-.1.2-.2.1 0 .2-.1.1 0z" id="path148" fill="#121212"/><path xmlns:inkscape="http://www.inkscape.org/namespaces/inkscape" class="st1" d="M120.2 11.4l-.2.1c.2-.1.3-.2.5-.3-.1.1-.2.1-.3.2z" id="path150" fill="#121212"/><path xmlns:inkscape="http://www.inkscape.org/namespaces/inkscape" class="st1" d="M119.5 11.4c-.3.1-.4.2-.9.3-.1 0 .1-.1.3-.1.1 0 .2-.1.3-.1.2-.1.3-.2.3-.1-.4.1-.6.2-.9.2-.2.1-.5.1-.8.2h.7c.1 0 .2 0 .3-.1.4-.1.8-.3.7-.3z" id="path152" fill="#121212"/><path xmlns:inkscape="http://www.inkscape.org/namespaces/inkscape" class="st1" d="M119.8 11.1c-.1.1-.3.1-.4.2l.2-.1z" id="path154" fill="#121212"/><path xmlns:inkscape="http://www.inkscape.org/namespaces/inkscape" class="st1" d="M119.3 2.5c0-.1-.3-.1-.5-.2.1.1.3.2.5.2z" id="path156" fill="#121212"/><path xmlns:inkscape="http://www.inkscape.org/namespaces/inkscape" class="st1" d="M108.6 6.5c.8-.8 1.8-1.5 2.8-2-.4.2-.9.4-1.3.7-.5.4-1 .8-1.5 1.3z" id="path158" fill="#121212"/><path xmlns:inkscape="http://www.inkscape.org/namespaces/inkscape" class="st1" d="M107.4 4.6c.4-.3.7-.5 1-.7.3-.2.6-.4 1.1-.6-.6.3-1 .5-1.3.8-.3.2-.7.5-1.1.8 0-.2.2-.2.3-.3z" id="path160" fill="#121212"/><path xmlns:inkscape="http://www.inkscape.org/namespaces/inkscape" class="st1" d="M107.5 4.2c.1 0-.1.1-.2.2-.2.1-.3.3-.2.2.3-.2.3-.3.4-.3.1-.1.1-.1.4-.3-.2.1-.3.1-.4.2z" id="path162" fill="#121212"/><path xmlns:inkscape="http://www.inkscape.org/namespaces/inkscape" class="st1" d="M112 3.2c-.1 0-.2.1-.3.1.1 0 .2 0 .3-.1z" id="path164" fill="#121212"/><path xmlns:inkscape="http://www.inkscape.org/namespaces/inkscape" class="st1" d="M104.2 7.4c-.1 0-.2.2-.3.3.1-.2.2-.3.3-.3z" id="path166" fill="#121212"/><path xmlns:inkscape="http://www.inkscape.org/namespaces/inkscape" class="st1" d="M111.7 3.5c.1 0 .3-.1.4-.1.1 0 .1-.1.2-.1-.2 0-.4.1-.6.2z" id="path170" fill="#121212"/><path xmlns:inkscape="http://www.inkscape.org/namespaces/inkscape" class="st1" d="M108.2 4.8c.1-.1.2-.2.3-.2-.1 0-.6.3-.3.2z" id="path172" fill="#121212"/><path xmlns:inkscape="http://www.inkscape.org/namespaces/inkscape" class="st1" d="M102.4 9.9c-.1.1-.2.3-.2.4.1-.2.2-.3.2-.4z" id="path174" fill="#121212"/><path xmlns:inkscape="http://www.inkscape.org/namespaces/inkscape" class="st1" d="M105.9 6.9c.2-.2-.5.6-.1.2.4-.4.2-.3.1-.2z" id="path176" fill="#121212"/><path xmlns:inkscape="http://www.inkscape.org/namespaces/inkscape" class="st1" d="M102.4 11.3c0 .1-.1.1-.1.2 0-.1 0-.1.1-.2z" id="path178" fill="#121212"/><path xmlns:inkscape="http://www.inkscape.org/namespaces/inkscape" class="st1" d="M102.4 11.3c.1-.2.2-.4.3-.5-.2.2-.2.3-.3.5z" id="path180" fill="#121212"/><path xmlns:inkscape="http://www.inkscape.org/namespaces/inkscape" class="st1" d="M101.4 13.5l.1-.2v-.1l.1-.2v-.1.2c-.2.3-.2.5-.2.4z" id="path182" fill="#121212"/><path xmlns:inkscape="http://www.inkscape.org/namespaces/inkscape" class="st1" d="M99.7 22.4c-.1-.7-.1-.9-.1-.9-.1-.7-.1-.6-.2-1 0 .4 0 .6.1.9.1.2.1.5.2 1z" id="path184" fill="#121212"/><path xmlns:inkscape="http://www.inkscape.org/namespaces/inkscape" class="st1" d="M99.5 20.5v-.3.3z" id="path186" fill="#121212"/><path class="st1" id="polygon188" fill="#121212" d="M102.8 11.6l.1-.2v-.2z"/><path xmlns:inkscape="http://www.inkscape.org/namespaces/inkscape" class="st1" d="M99.9 23.4c0-.1-.1-.3-.1-.5 0 0 .2.7.1.5z" id="path190" fill="#121212"/><path xmlns:inkscape="http://www.inkscape.org/namespaces/inkscape" class="st1" d="M100.2 20.6v-.7c0 .2-.1.5 0 .7z" id="path192" fill="#121212"/><path xmlns:inkscape="http://www.inkscape.org/namespaces/inkscape" class="st1" d="M100.8 25.4c-.1-.1-.1-.3 0-.3 0-.1-.1-.2-.1-.2-.1 0-.1.2.1.5z" id="path194" fill="#121212"/><path xmlns:inkscape="http://www.inkscape.org/namespaces/inkscape" class="st1" d="M100.4 21.8v-.1c0-.2-.1-.3-.1-.5 0 .3 0 .5.1.6z" id="path196" fill="#121212"/><path xmlns:inkscape="http://www.inkscape.org/namespaces/inkscape" class="st1" d="M100.8 20.1c0-.3-.1-.1-.1.1s0 .3-.1-.2v.5c0-.1 0-.2.1.3 0-.5 0-.7.1-.7z" id="path198" fill="#121212"/><path xmlns:inkscape="http://www.inkscape.org/namespaces/inkscape" class="st1" d="M100.7 20.8v0z" id="path200" fill="#121212"/><path xmlns:inkscape="http://www.inkscape.org/namespaces/inkscape" class="st1" d="M103.1 27.7l-.1-.1.1.1z" id="path202" fill="#121212"/><path xmlns:inkscape="http://www.inkscape.org/namespaces/inkscape" class="st1" d="M101.2 23.5c-.1-.2-.2-.5-.3-.7.1.2.2.7.3 1 .1.4.3.6.3.6-.1-.4-.3-.9-.4-1.1z" id="path204" fill="#121212"/><path xmlns:inkscape="http://www.inkscape.org/namespaces/inkscape" class="st1" d="M106.4 31c-.1 0-.2-.1-.4-.1.2.1.4.1.4.1s.2.1 0 0z" id="path206" fill="#121212"/><path xmlns:inkscape="http://www.inkscape.org/namespaces/inkscape" class="st1" d="M106.6 31.1c-.1 0 0 0 0 0z" id="path208" fill="#121212"/><path xmlns:inkscape="http://www.inkscape.org/namespaces/inkscape" class="st1" d="M102.2 26.5c-.1-.2-.2-.4-.4-.6l.2.4.2.2z" id="path210" fill="#121212"/><path xmlns:inkscape="http://www.inkscape.org/namespaces/inkscape" class="st1" d="M109 31.5c-.2 0-.4 0-.6-.1.2.1.5.1.6.1z" id="path212" fill="#121212"/><path xmlns:inkscape="http://www.inkscape.org/namespaces/inkscape" class="st1" d="M111.9 31.5h.1c.2 0 .3-.1.5-.1h-.1c-.2 0-.3.1-.5.1z" id="path214" fill="#121212"/><path xmlns:inkscape="http://www.inkscape.org/namespaces/inkscape" class="st1" d="M108.4 30.2c-.4-.1-.7-.1-.6 0 .2.1.5.1.7.1-.2-.1-.2 0-.6-.1h.5z" id="path216" fill="#121212"/><path xmlns:inkscape="http://www.inkscape.org/namespaces/inkscape" class="st1" d="M109.1 28.1c.1 0 .3.1.5.1.2.1.4.1.4.1-.1 0-.5-.1-.3 0h.6c.4.1.2.1-.1.1-.3 0-.8-.1-.9-.1.4.1.7.1.9.2.3 0 .6 0 1 .1-.3 0-.4 0-.6-.1h1.4c-.4 0-.2 0 .1-.1h.2-.1-1.2c.2.1-.1.1-.5 0-.4 0-.8-.1-1-.2-.1 0-.3-.1-.4-.1-.1 0-.1 0-.2-.1h.3c-.1 0-.3-.1-.5-.2s-.3-.1-.3-.1c-.5-.2-1-.5-1.4-.8l-.1-.1h-.1c-.4-.4-.8-.8-1.2-1.3-.3-.5-.6-1-.9-1.6-.2-.5-.4-1.1-.6-1.7-.2-.6-.3-1.2-.3-1.8 0 .4.1.7.1 1.1-.1-.3-.1-.1 0 .1 0 .2.1.4 0 .4-.1-.2-.1-.6-.2-.8 0-.1 0 .2-.1.2.1.5.2.7.2 1 .1.3.2.5.3.9 0 0-.2-.3 0 .3l-.1-.1c.2.4.2.6.3.7 0 .1.1.2.3.5h-.1c.1.2.3.5.5.7.2.3.4.5.5.7l.5.5c.1.1.2.2.3.2.1.1.2.1.3.2.1.1.3.3.6.4l-.6-.3c.2.2.3.2.4.3.1.1.2.1.4.2 0 0 0 .1-.3-.1.5.3 1.1.5 1.6.6.9.2.4.1.4 0z" id="path218" fill="#121212"/><path xmlns:inkscape="http://www.inkscape.org/namespaces/inkscape" class="st1" d="M111.3 28.6h.3-.3z" id="path220" fill="#121212"/><path xmlns:inkscape="http://www.inkscape.org/namespaces/inkscape" class="st1" d="M104 20v0z" id="path222" fill="#121212"/><path xmlns:inkscape="http://www.inkscape.org/namespaces/inkscape" class="st1" d="M113.7 28.1c-.3.1.2-.1.2-.2-.2.1-.3.1-.5.2s-.3.1-.5.1l-.1.1c.3 0 .6-.1.9-.2z" id="path224" fill="#121212"/><path xmlns:inkscape="http://www.inkscape.org/namespaces/inkscape" class="st1" d="M112.6 28.3s-.1.1-.3.1c.2 0 .4-.1.6-.1 0-.1-.1-.1-.3 0z" id="path226" fill="#121212"/><path xmlns:inkscape="http://www.inkscape.org/namespaces/inkscape" class="st1" d="M113 29.4h-.2c-.1 0-.2 0-.3.1.1-.1.3-.1.5-.1z" id="path228" fill="#121212"/><path xmlns:inkscape="http://www.inkscape.org/namespaces/inkscape" class="st1" d="M109.6 29.2c.2.1.7.1.9.1-.3 0-.4 0-.4-.1-.1.1-.2.1-.5 0z" id="path230" fill="#121212"/><path xmlns:inkscape="http://www.inkscape.org/namespaces/inkscape" class="st1" d="M110.2 29.7c-.2 0-.4 0-.6-.1h.1c.2 0 .4.1.5.1z" id="path232" fill="#121212"/><path xmlns:inkscape="http://www.inkscape.org/namespaces/inkscape" class="st1" d="M104 16.1v-.3.3z" id="path234" fill="#121212"/><path xmlns:inkscape="http://www.inkscape.org/namespaces/inkscape" class="st1" d="M103.9 20.5v-.1c0 .3.1.7.1.5 0-.2-.1-.4-.1-.6v.1c0-.3 0-.5-.1-.8 0 .2 0 .3-.1.3v-.7s0-.1.1-.5c0-.4 0-.8.1-1.2v-.1c.1-.7.2-1.4.3-2 .1-.7.3-1.3.5-2s-.2.4-.1-.2c-.1.4-.3.9-.4 1.4-.1.4-.2.8-.1.8 0 0 0-.1-.1.1v.5c0-.2.1-.3.1-.5 0 .2-.1.8-.2 1.3s-.1 1-.1 1.1v-.7c0-.2 0-.4.1-1 0 .1-.1.3-.1 0 0 1.4-.1 2.8.1 4.3z" id="path236" fill="#121212"/><path xmlns:inkscape="http://www.inkscape.org/namespaces/inkscape" class="st1" d="M108.4 6.6z" id="path238" fill="#121212"/><path xmlns:inkscape="http://www.inkscape.org/namespaces/inkscape" class="st1" d="M108 7c-.1.2-.3.4-.4.6.2-.3.5-.6.7-.8v-.1c-.1.1-.3.4-.4.5z" id="path240" fill="#121212"/><path xmlns:inkscape="http://www.inkscape.org/namespaces/inkscape" class="st1" d="M107.2 8.3c.3-.5.3-.5 0-.3.3-.4.2-.2.4-.5 0 0-.1.1-.2.3-.1.1-.2.3-.3.4z" id="path242" fill="#121212"/><path class="st1" id="polygon244" fill="#121212" d="M105.2 11.9l-.2.4.1-.2z"/><path xmlns:inkscape="http://www.inkscape.org/namespaces/inkscape" class="st1" d="M105.2 11.9l.2-.4s-.1 0-.1.1z" id="path246" fill="#121212"/><path xmlns:inkscape="http://www.inkscape.org/namespaces/inkscape" class="st1" d="M105.8 10.6c.1-.2.2-.3.3-.5-.1.1-.2.3-.3.5z" id="path248" fill="#121212"/><path xmlns:inkscape="http://www.inkscape.org/namespaces/inkscape" class="st1" d="M105.6 11c.1-.1.1-.3.2-.4-.1.1-.2.3-.2.4z" id="path250" fill="#121212"/><path xmlns:inkscape="http://www.inkscape.org/namespaces/inkscape" class="st1" d="M105.3 11.5c.1 0 .1-.1.4-.6l-.1.1c-.1.2-.2.4-.3.5z" id="path252" fill="#121212"/><path xmlns:inkscape="http://www.inkscape.org/namespaces/inkscape" class="st1" d="M106.5 28.1c-.1-.1-.3-.2-.4-.3.1.1.3.2.4.3z" id="path254" fill="#121212"/><path xmlns:inkscape="http://www.inkscape.org/namespaces/inkscape" class="st1" d="M104.5 25.9c-.1-.1-.1-.2-.2-.2.1 0 .2.1.2.2z" id="path256" fill="#121212"/><path xmlns:inkscape="http://www.inkscape.org/namespaces/inkscape" class="st1" d="M103.3 24.1c-.2-.6.3.8 0-.3 0-.1.2.4.4.8-.1 0-.2-.5-.1-.1.2.3.2.4.2.3.3.5.4.5.6.9-.2-.3-.4-.8-.6-1.3-.2-.5-.4-1.1-.5-1.5-.2-.5-.2-.1-.3-.1 0 0 .1.4.2.7 0 .3.1.6.1.6z" id="path258" fill="#121212"/><path xmlns:inkscape="http://www.inkscape.org/namespaces/inkscape" class="st1" d="M103.6 25c.1.3.2.3.3.5 0-.1-.2-.3-.3-.5z" id="path260" fill="#121212"/><path xmlns:inkscape="http://www.inkscape.org/namespaces/inkscape" class="st1" d="M103.1 18.8v-.4V18.8z" id="path262" fill="#121212"/><path xmlns:inkscape="http://www.inkscape.org/namespaces/inkscape" class="st1" d="M103.1 19.4v-.3.3z" id="path264" fill="#121212"/><path xmlns:inkscape="http://www.inkscape.org/namespaces/inkscape" class="st1" d="M103.1 18.8z" id="path266" fill="#121212"/><path xmlns:inkscape="http://www.inkscape.org/namespaces/inkscape" class="st1" d="M106.6 9.1s.2-.2.2-.4c0 .1-.1.3-.2.4z" id="path268" fill="#121212"/><path xmlns:inkscape="http://www.inkscape.org/namespaces/inkscape" class="st1" d="M115.8 3.8c.1 0 .2 0 .3.1-.1-.1-.1-.1-.3-.1z" id="path270" fill="#121212"/><path xmlns:inkscape="http://www.inkscape.org/namespaces/inkscape" class="st1" d="M119.4 5.5z" id="path272" fill="#121212"/><path xmlns:inkscape="http://www.inkscape.org/namespaces/inkscape" class="st1" d="M119.4 5.6c0 .1.1.3.1.5s.1.4.1.5V7c0-.2 0-.5-.1-.8.1-.3 0-.5-.1-.6z" id="path274" fill="#121212"/></g></g></g><g id="g300"><path xmlns:inkscape="http://www.inkscape.org/namespaces/inkscape" class="st2" d="M137.3 21.3V21v-.2c-.1-.3-.1-.6 0-.9.1-.2.1-.4.1-.6 0 .1 0 .2-.1.4.1-.2.1-.3.2-.5.1-.4.3-.7.4-1.1.2-.4.4-.7.7-1.1.5-.5 1.1-1 1.7-1.2.2-.1.3-.2.5-.2s.4-.1.6-.1h.3c-.2.1-.4.1-.5.2-.1 0-.2 0-.3.1 0 0-.1 0-.1.1-.1.1-.1.1-.2.1h-.1v.1c-.1.1-.3.1-.4.2-.1 0-.1.1-.2.1-.2 0-.3.1-.5.2-.2.2-.5.4-.7.7-.5.4-.7 1-1 1.6-.2.5-.3.9-.3 1.4v.8c.1.3.1.7.3 1 .1.2.3.4.5.6l.2.2c-.1-.4-.3-.8-.4-1.2h.1c0 .2.1.3.1.5 0 .1.1.2.2.3-.1-.2-.2-.3-.2-.5 0-.1-.1-.1 0-.1-.1-.2-.2-.5-.2-.7V21.1c0-.2 0-.5-.1-.7-.1-.3 0-.7.1-1 0-.2.1-.3.1-.5.1-.2.1-.3.2-.5.3-.4.5-.9.9-1.2.1-.1.2-.2.3-.2.1-.1.2-.2.4-.3.1-.1.3-.1.4-.2h.1c.1-.1.2-.1.3-.1 0 0 .1 0 .1.1h.2c-.1 0-.1.1-.2.1l-.6.3c-.2.1-.4.2-.5.4-.1.2-.4.3-.5.6-.2.2-.3.4-.5.6l-.3.6c0 .1-.1.1-.1.2s-.1.2-.1.3c0 .2 0 .3-.1.5V20c0 .3 0 .6.1.8v-.1c.1.2.2.4.2.7V21c.1.1.2.3.3.4 0-.1 0-.2-.1-.3.4 1.2 1.1 2.2 2.3 2.8v.1l-.6-.3h-.1-.1l.2.2c-.1-.1-.3-.2-.4-.2v.1l.1.1c.3.2.7.4 1.1.5.5.2 1 .2 1.5.2.4 0 .7-.2 1.1-.2.4-.1.7-.2 1-.4.4-.3.8-.6 1.1-1 .2-.3.4-.6.5-1 0-.1.1-.2.1-.4 0-.1.1-.2 0-.4 0-.1-.1-.1-.2-.2v.3c-.3.2-.3.5-.4.8-.1-.2 0-.4.1-.5.1-.1.1-.3.1-.5 0-.1 0-.2.1-.3-.1.2-.1.4-.2.6 0-.2.1-.4.1-.6 0-.2 0-.5-.1-.7l-.1.1c0-.2-.1-.4-.1-.6v-.2-.2-.1c0-.1-.1-.3-.1-.4-.1-.3-.2-.5-.5-.7 0 0 0-.2-.1-.2 0 0 0-.1-.1-.1-.3-.2-.6-.5-.9-.7h.1l-.2-.2h.1c-.1-.1-.3-.1-.4-.2.2-.2.3.1.5 0-.2-.2-.3-.5-.6-.7 0 0 .1 0 .1-.1l-.1-.1c-.1 0-.2-.1-.3-.1-.1-.2-.2-.3-.3-.5h.6c.2 0 .5.1.7.2.1 0 .2.1.3.2.1.1.2.1.4.1.1 0 .1.1.1.2v.1c.2 0 .3 0 .4-.1v.1c-.1.1-.1.2-.2.3v.2c0-.1.1-.1.1-.2v.1c.1-.1.2-.1.2-.1l.2.2c-.1 0-.1.1-.2.1.1 0 .1.1.2.1v-.2c.1.1.2.1.2.2 0 0 0-.1-.1-.1.1 0 .1 0 .2.1l.4.4c.1.1.2.1 0 .3v.1c.1-.1.2-.1.3-.2 0 .1.1.1.1.2.1.1.1.2.2.3.1.1 0 .1 0 .2s0 .1-.1.2l.2-.2v-.2c0-.1-.1-.2-.2-.3.2.2.3.4.4.6.1.1.2.2.2.3 0 .1.1.2.1.3.1.4.3.8.2 1.3 0 .2.1.5 0 .7v.5c0 .5-.2.9-.4 1.3v.1c0 .1-.1.3-.2.4-.1.1-.1.3-.2.4 0 .1-.1.1-.1.1l-.1.1c-.2.3-.4.5-.6.8-.1.2-.3.3-.5.4-.2.1-.3.3-.5.4-.2.2-.4.3-.7.4-.2.1-.3.2-.5.2-.4.2-.8.3-1.2.4h-1.9c-.4-.1-.8-.2-1.1-.3-.1 0-.3-.1-.4-.2-.2-.1-.4-.2-.5-.3-.6-.3-1-.7-1.4-1.2-.1-.1-.2-.3-.3-.5-.1-.2-.2-.3-.3-.5-.1-.2-.2-.5-.3-.7-.1-.3-.2-.5-.3-.8 0-.1 0-.2-.1-.3V21v-.5-.2-.1-.1c0-.2 0-.3.1-.5s.1-.3.2-.5v.3c0 .3-.1.5-.1.8V21.1c.9 0 .9.1.9.2v.1c0 .3.2.5.3.8h.1c-.2-.4-.3-.6-.4-.9zm7.6 3.1c.1.1.2.1.2.1.2-.1.3-.2.5-.4 0-.1-.1-.1-.1-.1-.2.1-.4.2-.6.4zm-6.2-3c0 .3.1.5.2.7h.1c-.1-.3-.2-.5-.3-.7zm6.7 3.7s-.1-.1 0 0c-.2 0-.4.1-.6.2.2 0 .4-.1.6-.2zm1.2-8.3c-.1.1-.1.2-.1.3.1-.1.2-.1.2-.1 0-.1 0-.1-.1-.2zm-9.1 3.3c.1-.1.1-.2.1-.4-.1.2-.1.3-.1.4zm6.6-4.7v.2c0-.1.1-.1.1-.2h-.1z" id="path282" fill="#f95b26"/><path xmlns:inkscape="http://www.inkscape.org/namespaces/inkscape" class="st2" d="M143.6 23.5c-.2.1-.5.2-.7.2h-1l-.1-.1c-.3-.1-.5-.2-.8-.3h-.2c.1 0 .1.1.2.1l-.1.1c-.4-.1-.6-.4-.8-.7h.1l-.3-.3c-.1-.1-.2-.1-.2-.2-.1-.2-.1-.4-.2-.6-.2 0 0-.2-.1-.3l.1.1v-.3c0 .1.1.2.1.3.1.4.4.7.7 1 .2.2.4.4.7.6.4.3.9.4 1.4.5.3 0 .8 0 1.2-.1z" id="path284" fill="#f95b26"/><path xmlns:inkscape="http://www.inkscape.org/namespaces/inkscape" class="st2" d="M143.6 24.1c-.1 0-.1 0-.2.1-.3 0-.7.1-1 .1-.2 0-.4 0-.6-.1-.1 0-.2-.1-.3-.1-.1 0-.1-.1-.2-.2.1 0 .1.1.1.1.1 0 .2 0 .3.1h.2c.5.1 1 .1 1.5 0 .1-.1.2-.1.2 0 0-.1 0 0 0 0z" id="path286" fill="#f95b26"/><path xmlns:inkscape="http://www.inkscape.org/namespaces/inkscape" class="st2" d="M141.3 23.7c.4.1.9.2 1.3.3-.5 0-.9-.2-1.3-.3z" id="path288" fill="#f95b26"/><path xmlns:inkscape="http://www.inkscape.org/namespaces/inkscape" class="st2" d="M145.2 18.2c-.2-.2-.4-.3-.5-.5.1 0 .5.3.5.5z" id="path290" fill="#f95b26"/><path xmlns:inkscape="http://www.inkscape.org/namespaces/inkscape" class="st2" d="M145.2 17.9c-.2-.2-.4-.3-.6-.5.2.1.4.3.6.5z" id="path292" fill="#f95b26"/><path xmlns:inkscape="http://www.inkscape.org/namespaces/inkscape" class="st2" d="M147.1 16.9c-.1-.1-.3-.2-.4-.3.2 0 .3.1.4.3z" id="path294" fill="#f95b26"/><path xmlns:inkscape="http://www.inkscape.org/namespaces/inkscape" class="st2" d="M141.2 16.1s-.1 0-.1-.1c.1 0 .3-.1.4-.1-.1.1-.2.2-.3.2z" id="path296" fill="#f95b26"/><path xmlns:inkscape="http://www.inkscape.org/namespaces/inkscape" class="st2" d="M146.7 16.3c-.1-.1-.3-.2-.4-.4.2.1.3.2.4.4.1 0 .1 0 0 0z" id="path298" fill="#f95b26"/></g></g></svg>
