<svg id="Layer_1" data-name="Layer 1" xmlns="http://www.w3.org/2000/svg" viewBox="0 0 356.32 337.09"><defs><style>.cls-1{fill:#fff;}</style></defs><path class="cls-1" d="M941.42,1304.15c-.26-2.65-.81-5.13.78-7.84.84-1.43.26-4.16-.48-6-3.83-9.25-3.31-18.35-.4-27.76,1.88-6.1,2.68-12.54,4-18.82l1.52.27q-.81,5.4-1.63,10.8l1,.42c1.84-5,3.62-9.93,5.52-14.86q6.38-16.53,12.83-33c4.82-12.38,12.47-23.11,21.2-32.81,14.9-16.57,32.5-29.67,53.53-37.75,5-1.91,9.64-4.91,14.75-6.16,6.29-1.54,12.59-3.79,19.36-2.82,2.69.39,5.52-.18,8.35.48-5.49,2.22-10.94,4.57-16.51,6.6-2.45.9-5.16,1.08-7.72,1.73-1.52.39-3.61.65-4.33,1.71-2.12,3.15-4.52,3.17-7.54,1.81-.47-.21-1.21.16-2.13.32l.68,1.73c-4.08,2.28-7.93,4.5-11.84,6.6-1.62.87-3.43,2.19-5.07,2.08-5.86-.39-10.71,2-14.78,5.51-7.53,6.51-14.6,13.56-21.85,20.39-14.39,13.57-22.74,31-29.93,48.85a107,107,0,0,0-7.94,44.64c.35,8.37-.12,16.89,1.36,25.06,1.84,10.18,4.22,20.56,8.44,29.92,2.93,6.5,9.33,11.46,14.23,17.06,1.81,2.08,3.75,4,5.88,6.32l-11.91-36.29,3.08-1.53c1.31,5.31,2.09,10.75,4.08,15.7,1.33,3.31,4.37,5.93,6.65,8.86l1.45-.73c-2.48-5-4.8-10.17-7.49-15.1-1.22-2.24-1.65-3.6,1-4.07q-3.63-10.93-7.27-21.94l-.48.07v12.52l-.86.06c-.17-4.83-.26-9.66-.54-14.47-.45-7.54,0-15.34-1.8-22.55-2.7-10.74-1.32-20.76,1.73-31,1.54-5.13,2.37-10.49,4.14-15.53a83.45,83.45,0,0,1,6.84-15.49c8.08-13.42,16.81-26.44,28.67-36.92,3.22-2.85,7-5.06,10.52-7.58,3.76-2.69,7.33-5.74,11.32-8s8.48-3.85,12.74-5.73c1-.45,2.32-.63,3-1.38,2.74-3,6.21-3.4,9.92-3.25l4.36,1.55,4.73-.48.77,1.33a65.53,65.53,0,0,1-6.88,4.34c-6.46,3-13.36,5.26-19.48,8.85s-13.26,7.38-16.85,13c-4.4,6.93-12.28,10.48-15.37,18.17a3.46,3.46,0,0,1-1.2,1.45c-7.08,4.81-10.4,12.52-14.6,19.44-3.79,6.25-6.58,13.1-10,19.6-1.3,2.48-3.37,4.57-4.55,7.09a36.69,36.69,0,0,0-2.92,8.86c-1,5.22-1.47,10.52-2.31,16.82L972,1261h-1q.79,13,1.61,26l1.46,0,.61-1.94,7.62,20.67,1-.2-1-12.08,1.12-.16,8.69,13.35,1.24-.53-1.57-8.77c11.89,38.24,32.42,69.11,71.19,85.48-.23.88-.57,2.22-1.17,4.52-6.41-3-12.54-6-18.72-8.79-.42-.19-1.24.77-1.93.88a7.47,7.47,0,0,1-2-.2l5.88,6.21-.73.82-13.83-7.33c-.34.57-.67,1.15-1,1.73,1.14,1,2.22,2,3.43,2.86,10.49,7.46,22.07,12.46,34.33,16.44,15.17,4.94,30.7,5.33,46.33,6,12,.53,22.49-4.72,33.69-7.39a114.9,114.9,0,0,0,63.67-43.27c6.37-9,13.25-17.93,15.32-29.38.69-3.77,3.3-7.16,4.32-10.91a27.19,27.19,0,0,0,1.07-10.85c-.27-1.7-3.57-2.93-6.47-5.1v8c-8.09,6.51-9.44,16.19-12.58,26.09-2.13-6.76.51-11.1,2.39-15.86,1.79-4.51,2.15-9.6,3.09-14.44.67-3.44,1.26-6.89,1.89-10.34l-1.42-.41-6.75,19-.56-.09c1-6.44,1.75-12.91,2.93-19.32,1.35-7.39.32-14.43-2.26-21.5l-2.18,1.74c-1.13-6.12-2.17-12-3.29-17.78-.45-2.33-1.27-4.61-1.5-7a27.49,27.49,0,0,1,.45-5.62c.09-.76.58-1.58.41-2.26-1-4.23-2.22-8.42-3.3-12.64-2.34-9.13-7.39-16.5-14.07-23.09-1.52-1.5-1-5-1.68-7.49a6.12,6.12,0,0,0-2.21-3.43c-10.21-6-17.07-16-27.65-21.91l2.15-1.23-6.63-6.22,3.28-1.08-11.67-6.47c5.34-5.73,9.52,3.58,15,.41-6.09-7.18-9-17-18.82-20.11l2.92-2c-1.2-.83-2.3-2-3.62-2.42-3.8-1.13-7.68-1.94-10.4-2.6l-9.82-16.43c6.51-.28,13-1.31,19.38-.65a114.62,114.62,0,0,1,21.3,4.79c3.31,1,6,3.86,9.19,5.46,3.54,1.78,7.32,3.08,11,4.6,2.77,1.14,3.51,2.68,2.21,5.76-.56,1.33,1.06,3.58,1.36,4.46l12.09-2,1.3,2c-1.8,2.83-3.55,5.71-5.41,8.5-1.49,2.24-1.1,3.7,1.43,5.13l3.17-6,1.4.51c.14,1.11.28,2.22.51,4l7.2-4.23.79-1.39,5.61,6.49-7.18,4.13,6.25,3.7,1.32-5.71,7.65,6.42.41-.45-2.16-3.87c.25-.42.49-.84.73-1.26,2,.9,4.47,1.37,6.07,2.78,4.39,3.88,8.49,8.1,12.62,12.26,2.28,2.3,5.56,4.52,1.2,8-.47.38.15,2.11.31,3.76l7.72-6.78c1.3,1.82,2.63,3.72,4,5.6,2.4,3.3,4.51,6.88,7.31,9.8,2.52,2.63,1.3,4.48,0,6.83a44,44,0,0,0-2.17,5.57l1.25.37c1.94-1.78,4.37-3.27,5.63-5.44.8-1.36.31-4-.45-5.63-1.42-3.09-3.46-5.89-5.9-9.89,7.59,4.63,9.07,11.63,11.9,17.84,1.62,3.56,4.9,6.66,5.57,10.31s3.48,6,4.49,9.34c3.91,12.91,8.46,25.92,7.4,39.49-.57,7.29,2.3,14.15,1.24,20.86-.76,4.83-.5,9.58-.64,14.25-.45,14.91-5.89,28.17-11.93,41.36-.56,1.24-.43,2.79-.92,4.09-1.51,4-3.16,8-4.77,12-1.77,4.38-3.33,8.87-5.43,13.09-.83,1.69-2.83,2.79-4.3,4.16a13.5,13.5,0,0,0-1.71,1.57c-6.06,8-11.71,16.35-18.26,23.92-4.06,4.7-9.42,8.3-14.29,12.28s-10.11,8-15.07,12.05a71,71,0,0,1-20.19,11.9c-5.2,1.93-9.79,4.88-14.89,6.92-11.81,4.72-23.56,9.42-36.3,11-3.62.44-7.19,1.29-10.81,1.53-6.3.42-12.63.79-18.93.68-9.42-.17-19,.14-28.22-1.42-11.9-2-23.58-5.49-35.24-8.72a72,72,0,0,1-13.18-5.46c-5.76-2.92-11.25-6.38-16.94-9.44-17.07-9.15-31.05-22.06-43.74-36.4-3.7-4.18-6.13-9.47-9.29-14.15-3.34-5-7.45-9.5-10.14-14.77-3.54-6.93-6.19-14.33-8.88-21.66-2.93-8-5.66-16.06-8.1-24.21-1-3.41-1.14-7.09-1.55-10.66-.33-2.81-.58-5.64-.67-8.46-.17-5-.05-9.92-.34-14.86-.15-2.53-1.1-5-1.33-7.55a14.81,14.81,0,0,1,.7-4.46c.19-.87,1-1.77.86-2.52-1.08-5.15.33-9.92,1.91-14.7a106.37,106.37,0,0,1,5.58-14.63,86.63,86.63,0,0,1-.05,8.83c-.81,8-2.34,15.95-2.66,24-.28,7.18.69,14.41,1.07,21.62.12,2.33-.31,4.75.22,7,.64,2.72,2,5.26,3.07,7.89a13.57,13.57,0,0,0-1,3.62c.2,8.94,4.71,16.35,8.72,23.92a10.8,10.8,0,0,0,1.7-.44C947.76,1322.13,944.59,1313.14,941.42,1304.15ZM1175,1400l.24,1.4c2,.3,4.47,1.52,5.79.74,5.54-3.29,10.72-7.17,16-10.85l-3.33-4.56Zm-191.33-92.12-2.15,1,9.45,20.14,1.61-.79Zm205.49,113.66-.71-1.43-18,8.78c.24.5.49,1,.74,1.51ZM1228,1166.88l-2,.07c-.52,2.77-1,5.54-1.78,9.39l6.74-4.46ZM946,1268.25l2,.25.54-11.62-1.5-.11Q946.59,1262.51,946,1268.25ZM1151.13,1122c-.33,1.65-.67,2.8-.78,4s0,2.5,0,3.75l1.09.24c1.08-2.22,2.15-4.43,3.35-6.88Z" transform="translate(-930.77 -1111.82)"/><path class="cls-1" d="M1136,1373.75c-7.4,4.07-15,5.33-23,6.29-7.81.93-15.3-.24-22.94-.75-2.62-.17-5.3.48-7.91.28-.93-.07-1.61-1.9-2.64-2.29-8.22-3.09-16.47-6.11-24.78-9a51.31,51.31,0,0,0-7.29-1.4l-1.16,1.12,6.93,3.08-2,2.1c-10.93-3.37-17.13-12.61-24.45-20.61,0,.06,0-.2,0-.2.76,0,1.52,0,2.76,0-3.26-3.69-6.24-7.3-9.5-10.63-1.79-1.82-5-2.76-5.91-4.82-2.29-5.35-3.63-11.11-5.53-17.3-6.63-1.32-.36-6.71-1.67-10.34l2.55,1.94-1.13-8.69.89-.22c.89,2.58,1.79,5.16,2.65,7.76,4.13,12.6,13.56,22,21,32.37,5,7.09,13.47,11.92,20.75,17.25,12.46,9.13,26.68,13.87,42,15.44,12.93,1.33,25.79,1.64,38.42-2.26C1134.42,1372.75,1135.09,1373.34,1136,1373.75Z" transform="translate(-930.77 -1111.82)"/><path class="cls-1" d="M1134.79,1390.66c-1.6.59-3.16,1.51-4.81,1.72-10.26,1.27-20.52,2.93-30.82,3.33a49.6,49.6,0,0,1-18.45-2.82c-3.27-1.18-6.19-2.33-9.7-2.66-1.62-.16-3-2.9-5.1-5.14,3.36-.15,3.74,2.26,4.34,2.52a27.55,27.55,0,0,0,8.58,1.62c2.46.19,5.05-.59,7.43-.15,15,2.75,30,3.4,45-.06a13.67,13.67,0,0,1,3.07,0Z" transform="translate(-930.77 -1111.82)"/><path class="cls-1" d="M1062.59,1378l40.14,7.86C1088.37,1388,1075.41,1383.34,1062.59,1378Z" transform="translate(-930.77 -1111.82)"/><path class="cls-1" d="M1185,1210.76l-16.25-15C1173,1194,1184.21,1203.55,1185,1210.76Z" transform="translate(-930.77 -1111.82)"/><path class="cls-1" d="M1184.88,1199.89l-19.88-16,.78-1,20.26,15.56Z" transform="translate(-930.77 -1111.82)"/><path class="cls-1" d="M1242.55,1169.44l-13-10.28A18.35,18.35,0,0,1,1242.55,1169.44Z" transform="translate(-930.77 -1111.82)"/><path class="cls-1" d="M1061.79,1145.84l-4.36-1.55,13.53-4.35.41,1.06Z" transform="translate(-930.77 -1111.82)"/><path class="cls-1" d="M1231.86,1150.92l-12.37-11.2.92-1,12.52,11Z" transform="translate(-930.77 -1111.82)"/></svg>