<svg xmlns="http://www.w3.org/2000/svg" height="432" width="546.667" fill="#FFF"><path d="M39.541 272.683A10.739 10.739 0 0 0 32 269.557c-2.803 0-5.557 1.14-7.541 3.126a10.73 10.73 0 0 0-3.126 7.541 10.74 10.74 0 0 0 3.126 7.541A10.752 10.752 0 0 0 32 290.891c2.807 0 5.557-1.142 7.541-3.126a10.758 10.758 0 0 0 3.126-7.541c0-2.803-1.14-5.557-3.126-7.541zM60.875 24.459L39.54 3.125a10.662 10.662 0 0 0-15.082 0L3.126 24.46c-4.167 4.166-4.167 10.916 0 15.082a10.662 10.662 0 0 0 15.082 0l3.125-3.12v200.792c0 5.891 4.776 10.667 10.667 10.667 5.89 0 10.667-4.776 10.667-10.667V36.421l3.125 3.126a10.644 10.644 0 0 0 7.541 3.12c2.73 0 5.46-1.042 7.542-3.126 4.166-4.161 4.166-10.916 0-15.082zM543.01 391.39l-21.333-21.333c-4.166-4.161-10.917-4.161-15.084 0-4.166 4.167-4.166 10.922 0 15.088l3.126 3.126h-38.282V238.579c0-5.891-4.776-10.667-10.666-10.667-5.891 0-10.667 4.776-10.667 10.667v149.686H334.516V320c0-5.89-4.781-10.667-10.667-10.667-5.89 0-10.666 4.776-10.666 10.667v68.265h-88.678V217.093c0-5.89-4.776-10.666-10.666-10.666-5.886 0-10.667 4.776-10.667 10.666v171.172h-85.641v-66.667c0-5.89-4.776-10.666-10.667-10.666-5.89 0-10.667 4.776-10.667 10.666v66.667h-53.53v-61.39c0-5.891-4.776-10.667-10.667-10.667-5.89 0-10.667 4.776-10.667 10.667v72.057c0 5.89 4.776 10.666 10.667 10.666h477.713l-3.125 3.126c-4.161 4.167-4.161 10.921 0 15.088a10.646 10.646 0 0 0 7.548 3.126c2.728 0 5.457-1.042 7.541-3.126l21.334-21.333c4.166-4.167 4.166-10.922 0-15.088z"/><path d="M460.765 82.64c-21.234 0-38.51 17.277-38.51 38.516 0 6.09 1.428 11.855 3.953 16.98l-83.525 83.525a38.27 38.27 0 0 0-18.839-4.942 38.348 38.348 0 0 0-18.47 4.724l-56.489-56.49a38.33 38.33 0 0 0 3.47-15.948c0-21.24-17.276-38.516-38.516-38.516-21.235 0-38.516 17.276-38.516 38.516a38.3 38.3 0 0 0 4.546 18.135l-54.426 54.428a38.306 38.306 0 0 0-18.579-4.792c-21.239 0-38.515 17.276-38.515 38.516 0 21.235 17.282 38.515 38.515 38.515 21.24 0 38.516-17.28 38.516-38.515 0-6.765-1.76-13.125-4.833-18.656l54.202-54.204a38.258 38.258 0 0 0 19.09 5.09 38.277 38.277 0 0 0 21.114-6.329l55.276 55.276a38.242 38.242 0 0 0-4.901 18.766c0 21.234 17.281 38.514 38.516 38.514 21.239 0 38.516-17.28 38.516-38.514a38.245 38.245 0 0 0-4.688-18.396l82.907-82.902a38.27 38.27 0 0 0 20.186 5.735c21.24 0 38.516-17.276 38.516-38.516 0-21.239-17.276-38.516-38.516-38.516zM106.864 272.473c-9.473 0-17.176-7.708-17.176-17.181 0-9.475 7.703-17.183 17.176-17.183 4.641 0 8.855 1.86 11.948 4.86.052.052.1.114.152.167.063.061.13.115.197.176 3.016 3.1 4.886 7.324 4.886 11.98 0 9.473-7.708 17.181-17.183 17.181zm106.975-106.29c-9.47 0-17.178-7.704-17.178-17.178s7.703-17.182 17.178-17.182c9.478 0 17.182 7.708 17.182 17.182 0 9.474-7.709 17.178-17.182 17.178zm110.01 106.229c-9.474 0-17.182-7.71-17.182-17.177 0-9.475 7.708-17.183 17.182-17.183 9.468 0 17.178 7.708 17.178 17.183 0 9.473-7.71 17.177-17.178 17.177zm136.922-134.073c-9.474 0-17.183-7.708-17.183-17.183 0-9.473 7.71-17.183 17.183-17.183 9.474 0 17.177 7.71 17.177 17.183 0 9.475-7.708 17.183-17.177 17.183z"/><path d="M468.312 186.593a10.75 10.75 0 0 0-7.541-3.124c-2.807 0-5.558 1.14-7.542 3.124a10.748 10.748 0 0 0-3.125 7.543c0 2.801 1.141 5.557 3.125 7.541a10.768 10.768 0 0 0 7.542 3.126c2.802 0 5.557-1.142 7.541-3.126a10.772 10.772 0 0 0 3.125-7.541c0-2.808-1.14-5.557-3.125-7.543z"/></svg>