<svg xmlns="http://www.w3.org/2000/svg" height="548" width="478.667"><g fill="#fff"><path d="M370.401 458.08V252.8c0-85.006-66.412-154.792-150.078-160.198-2.724-27.104-25.667-48.333-53.479-48.333-5.89 0-10.667 4.776-10.667 10.667v60.38L55.402 246.705a10.667 10.667 0 0 0 .915 14.031l45.386 45.47a10.66 10.66 0 0 0 13.318 1.437l36.115-23.24h38.463c2.5 0 4.994-.162 7.469-.468v23.281c0 35.15-20.401 67.839-51.98 83.276a10.676 10.676 0 0 0-5.979 9.583v57.146c-29.604 2.062-53.068 26.791-53.068 56.91v21.872c0 5.89 4.776 10.666 10.667 10.666h309.428c5.89 0 10.667-4.776 10.667-10.666v-21.871c0-27.817-20.016-51.041-46.402-56.052zm-209.958-51.568a113.884 113.884 0 0 0 40.661-38.916 113.949 113.949 0 0 0 17.297-60.38v-30.063c.11-.057.23-.109.339-.172a60.886 60.886 0 0 0 31.796-53.51v-6.938c0-5.89-4.776-10.666-10.667-10.666-5.89 0-10.666 4.776-10.666 10.666v6.938a39.569 39.569 0 0 1-20.662 34.776 39.716 39.716 0 0 1-18.937 4.822H148c-2.047 0-4.052.59-5.77 1.699l-31.511 20.276-32.703-32.765 97.29-126.855a10.666 10.666 0 0 0 2.205-6.49V67.404c12.65 4.422 21.749 16.474 21.749 30.609v3.792a10.663 10.663 0 0 0 1.677 6.964l.058.088a10.664 10.664 0 0 0 10.276 4.75c76.114.755 137.797 62.906 137.797 139.193v204.265h-29.87v-80c0-5.89-4.771-10.667-10.667-10.667-5.891 0-10.667 4.776-10.667 10.667v80H160.443zm235.026 118.824H107.38v-11.204c0-19.703 16.027-35.735 35.73-35.735h216.625c19.702 0 35.734 16.032 35.734 35.735z"/><path d="M199.36 174.945a10.742 10.742 0 0 0-7.543-3.125c-2.801 0-5.557 1.14-7.541 3.125a10.743 10.743 0 0 0-3.125 7.542c0 2.812 1.141 5.557 3.125 7.541a10.777 10.777 0 0 0 7.541 3.125 10.73 10.73 0 0 0 7.543-3.125 10.734 10.734 0 0 0 3.124-7.541c0-2.808-1.14-5.558-3.124-7.542z"/><path d="M408.683 70.517C363.557 25.388 303.557.533 239.735.533c-63.823 0-123.823 24.855-168.954 69.984C25.651 115.643.803 175.648.803 239.465c0 38.303 8.79 74.891 26.129 108.756a239.082 239.082 0 0 0 14.875 25.124c3.302 4.882 9.933 6.158 14.813 2.85 4.875-3.307 6.15-9.938 2.844-14.812a218.904 218.904 0 0 1-13.547-22.886c-15.781-30.824-23.781-64.146-23.781-99.032 0-119.984 97.613-217.598 217.599-217.598 119.984 0 217.598 97.614 217.598 217.598 0 34.167-7.688 66.866-22.854 97.194a218.376 218.376 0 0 1-26.922 41.328c-3.754 4.541-3.114 11.265 1.427 15.016a10.615 10.615 0 0 0 6.787 2.446c3.073 0 6.12-1.322 8.229-3.874a239.57 239.57 0 0 0 29.557-45.375c16.662-33.317 25.11-69.23 25.11-106.735 0-63.817-24.855-123.822-69.984-168.948zM81.145 388.465l-.077-.088c-4.01-4.317-10.761-4.568-15.078-.557-4.318 4.01-4.569 10.76-.558 15.073.005.004.073.083.084.088a10.617 10.617 0 0 0 7.817 3.407c2.594 0 5.203-.943 7.255-2.85 4.319-4.01 4.568-10.755.557-15.073z"/><path d="M316.073 333.867a10.748 10.748 0 0 0-7.542-3.126 10.754 10.754 0 0 0-7.542 3.126 10.774 10.774 0 0 0-3.125 7.552 10.75 10.75 0 0 0 3.125 7.53 10.703 10.703 0 0 0 7.542 3.126c2.808 0 5.557-1.13 7.542-3.126a10.726 10.726 0 0 0 3.124-7.53c0-2.818-1.14-5.558-3.124-7.552z"/></g></svg>
